ISO-10303-21;
HEADER;
/* Generated by software containing ST-Developer
 * from STEP Tools, Inc. (www.steptools.com) 
 */

FILE_DESCRIPTION(
/* description */ (''),
/* implementation_level */ '2;1');

FILE_NAME(
/* name */ 'Bottom Cover (pi4).step',
/* time_stamp */ '2026-05-12T09:54:41-05:00',
/* author */ (''),
/* organization */ (''),
/* preprocessor_version */ 'ST-DEVELOPER v20.1',
/* originating_system */ 'Autodesk Translation Framework v15.8.0.0',
/* authorisation */ '');

FILE_SCHEMA (('AUTOMOTIVE_DESIGN { 1 0 10303 214 3 1 1 }'));
ENDSEC;

DATA;
#10=MECHANICAL_DESIGN_GEOMETRIC_PRESENTATION_REPRESENTATION('',(#13),#1920);
#11=SHAPE_REPRESENTATION_RELATIONSHIP('SRR','None',#1927,#12);
#12=ADVANCED_BREP_SHAPE_REPRESENTATION('',(#14),#1919);
#13=STYLED_ITEM('',(#1936),#14);
#14=MANIFOLD_SOLID_BREP('Bottom Cover (pi4)',#1138);
#15=CYLINDRICAL_SURFACE('',#1166,1.60000000000002);
#16=CYLINDRICAL_SURFACE('',#1170,1.60000000000002);
#17=CYLINDRICAL_SURFACE('',#1177,3.00000000000001);
#18=CYLINDRICAL_SURFACE('',#1184,3.00000000000001);
#19=CYLINDRICAL_SURFACE('',#1188,1.60000000000002);
#20=CYLINDRICAL_SURFACE('',#1192,1.60000000000002);
#21=CYLINDRICAL_SURFACE('',#1206,3.00000000000001);
#22=CYLINDRICAL_SURFACE('',#1214,3.00000000000001);
#23=CYLINDRICAL_SURFACE('',#1236,1.65000000000001);
#24=CYLINDRICAL_SURFACE('',#1239,1.65);
#25=CYLINDRICAL_SURFACE('',#1242,1.65000000000001);
#26=CYLINDRICAL_SURFACE('',#1245,1.65000000000001);
#27=CYLINDRICAL_SURFACE('',#1246,7.80000000000001);
#28=CYLINDRICAL_SURFACE('',#1247,7.80000000000001);
#29=CYLINDRICAL_SURFACE('',#1253,1.65000000000001);
#30=CYLINDRICAL_SURFACE('',#1256,1.65);
#31=FACE_BOUND('',#195,.T.);
#32=FACE_BOUND('',#196,.T.);
#33=FACE_BOUND('',#202,.T.);
#34=FACE_BOUND('',#206,.T.);
#35=FACE_BOUND('',#227,.T.);
#36=FACE_BOUND('',#228,.T.);
#37=FACE_BOUND('',#229,.T.);
#38=FACE_BOUND('',#230,.T.);
#39=FACE_BOUND('',#231,.T.);
#40=FACE_BOUND('',#232,.T.);
#41=FACE_BOUND('',#233,.T.);
#42=FACE_BOUND('',#234,.T.);
#43=FACE_BOUND('',#235,.T.);
#44=FACE_BOUND('',#237,.T.);
#45=FACE_BOUND('',#238,.T.);
#46=FACE_BOUND('',#239,.T.);
#47=FACE_BOUND('',#240,.T.);
#48=FACE_BOUND('',#241,.T.);
#49=FACE_BOUND('',#242,.T.);
#50=FACE_BOUND('',#243,.T.);
#51=FACE_BOUND('',#244,.T.);
#52=FACE_BOUND('',#245,.T.);
#53=FACE_BOUND('',#246,.T.);
#54=CIRCLE('',#1160,2.10000000000002);
#55=CIRCLE('',#1161,1.60000000000002);
#56=CIRCLE('',#1163,2.50000000000001);
#57=CIRCLE('',#1164,2.50000000000001);
#58=CIRCLE('',#1165,2.10000000000002);
#59=CIRCLE('',#1167,1.60000000000002);
#60=CIRCLE('',#1169,1.60000000000002);
#61=CIRCLE('',#1171,1.60000000000002);
#62=CIRCLE('',#1173,2.5);
#63=CIRCLE('',#1174,3.00000000000001);
#64=CIRCLE('',#1176,2.10000000000002);
#65=CIRCLE('',#1178,3.00000000000001);
#66=CIRCLE('',#1180,2.5);
#67=CIRCLE('',#1181,3.00000000000001);
#68=CIRCLE('',#1183,2.10000000000002);
#69=CIRCLE('',#1185,3.00000000000001);
#70=CIRCLE('',#1187,1.60000000000002);
#71=CIRCLE('',#1189,1.60000000000002);
#72=CIRCLE('',#1191,1.60000000000002);
#73=CIRCLE('',#1193,1.60000000000002);
#74=CIRCLE('',#1195,3.50000000000001);
#75=CIRCLE('',#1197,3.50000000000001);
#76=CIRCLE('',#1200,3.50000000000001);
#77=CIRCLE('',#1201,3.00000000000001);
#78=CIRCLE('',#1204,3.50000000000001);
#79=CIRCLE('',#1205,3.00000000000001);
#80=CIRCLE('',#1207,3.00000000000001);
#81=CIRCLE('',#1211,3.00000000000001);
#82=CIRCLE('',#1217,7.80000000000001);
#83=CIRCLE('',#1218,7.80000000000001);
#84=CIRCLE('',#1219,1.65000000000001);
#85=CIRCLE('',#1220,1.65);
#86=CIRCLE('',#1221,1.65000000000001);
#87=CIRCLE('',#1222,1.65000000000001);
#88=CIRCLE('',#1223,1.65000000000001);
#89=CIRCLE('',#1224,1.65);
#90=CIRCLE('',#1226,7.80000000000001);
#91=CIRCLE('',#1227,7.80000000000001);
#92=CIRCLE('',#1228,3.15);
#93=CIRCLE('',#1229,3.15000000000001);
#94=CIRCLE('',#1230,3.15);
#95=CIRCLE('',#1231,3.14999999999999);
#96=CIRCLE('',#1232,3.15000000000001);
#97=CIRCLE('',#1233,3.15000000000001);
#98=CIRCLE('',#1235,1.65000000000001);
#99=CIRCLE('',#1238,1.65);
#100=CIRCLE('',#1241,1.65000000000001);
#101=CIRCLE('',#1244,1.65000000000001);
#102=CIRCLE('',#1252,1.65000000000001);
#103=CIRCLE('',#1255,1.65);
#104=CONICAL_SURFACE('',#1159,1.85000000000002,0.785398163397457);
#105=CONICAL_SURFACE('',#1168,1.85000000000002,0.785398163397457);
#106=CONICAL_SURFACE('',#1172,2.75,0.785398163397457);
#107=CONICAL_SURFACE('',#1179,2.75,0.785398163397457);
#108=CONICAL_SURFACE('',#1186,1.85000000000002,0.785398163397457);
#109=CONICAL_SURFACE('',#1190,1.85000000000002,0.785398163397457);
#110=CONICAL_SURFACE('',#1194,3.25000000000001,0.785398163397457);
#111=CONICAL_SURFACE('',#1196,3.25000000000001,0.785398163397457);
#112=CONICAL_SURFACE('',#1199,3.25000000000001,0.785398163397448);
#113=CONICAL_SURFACE('',#1203,3.25000000000001,0.785398163397451);
#114=CONICAL_SURFACE('',#1210,2.75000000000001,0.785398163397451);
#115=CONICAL_SURFACE('',#1213,2.75000000000001,0.785398163397448);
#116=CONICAL_SURFACE('',#1234,2.40000000000001,0.785398163397449);
#117=CONICAL_SURFACE('',#1237,2.4,0.785398163397449);
#118=CONICAL_SURFACE('',#1240,2.40000000000001,0.78539816339745);
#119=CONICAL_SURFACE('',#1243,2.4,0.785398163397444);
#120=CONICAL_SURFACE('',#1251,2.40000000000001,0.78539816339745);
#121=CONICAL_SURFACE('',#1254,2.4,0.785398163397449);
#122=FACE_OUTER_BOUND('',#186,.T.);
#123=FACE_OUTER_BOUND('',#187,.T.);
#124=FACE_OUTER_BOUND('',#188,.T.);
#125=FACE_OUTER_BOUND('',#189,.T.);
#126=FACE_OUTER_BOUND('',#190,.T.);
#127=FACE_OUTER_BOUND('',#191,.T.);
#128=FACE_OUTER_BOUND('',#192,.T.);
#129=FACE_OUTER_BOUND('',#193,.T.);
#130=FACE_OUTER_BOUND('',#194,.T.);
#131=FACE_OUTER_BOUND('',#197,.T.);
#132=FACE_OUTER_BOUND('',#198,.T.);
#133=FACE_OUTER_BOUND('',#199,.T.);
#134=FACE_OUTER_BOUND('',#200,.T.);
#135=FACE_OUTER_BOUND('',#201,.T.);
#136=FACE_OUTER_BOUND('',#203,.T.);
#137=FACE_OUTER_BOUND('',#204,.T.);
#138=FACE_OUTER_BOUND('',#205,.T.);
#139=FACE_OUTER_BOUND('',#207,.T.);
#140=FACE_OUTER_BOUND('',#208,.T.);
#141=FACE_OUTER_BOUND('',#209,.T.);
#142=FACE_OUTER_BOUND('',#210,.T.);
#143=FACE_OUTER_BOUND('',#211,.T.);
#144=FACE_OUTER_BOUND('',#212,.T.);
#145=FACE_OUTER_BOUND('',#213,.T.);
#146=FACE_OUTER_BOUND('',#214,.T.);
#147=FACE_OUTER_BOUND('',#215,.T.);
#148=FACE_OUTER_BOUND('',#216,.T.);
#149=FACE_OUTER_BOUND('',#217,.T.);
#150=FACE_OUTER_BOUND('',#218,.T.);
#151=FACE_OUTER_BOUND('',#219,.T.);
#152=FACE_OUTER_BOUND('',#220,.T.);
#153=FACE_OUTER_BOUND('',#221,.T.);
#154=FACE_OUTER_BOUND('',#222,.T.);
#155=FACE_OUTER_BOUND('',#223,.T.);
#156=FACE_OUTER_BOUND('',#224,.T.);
#157=FACE_OUTER_BOUND('',#225,.T.);
#158=FACE_OUTER_BOUND('',#226,.T.);
#159=FACE_OUTER_BOUND('',#236,.T.);
#160=FACE_OUTER_BOUND('',#247,.T.);
#161=FACE_OUTER_BOUND('',#248,.T.);
#162=FACE_OUTER_BOUND('',#249,.T.);
#163=FACE_OUTER_BOUND('',#250,.T.);
#164=FACE_OUTER_BOUND('',#251,.T.);
#165=FACE_OUTER_BOUND('',#252,.T.);
#166=FACE_OUTER_BOUND('',#253,.T.);
#167=FACE_OUTER_BOUND('',#254,.T.);
#168=FACE_OUTER_BOUND('',#255,.T.);
#169=FACE_OUTER_BOUND('',#256,.T.);
#170=FACE_OUTER_BOUND('',#257,.T.);
#171=FACE_OUTER_BOUND('',#258,.T.);
#172=FACE_OUTER_BOUND('',#259,.T.);
#173=FACE_OUTER_BOUND('',#260,.T.);
#174=FACE_OUTER_BOUND('',#261,.T.);
#175=FACE_OUTER_BOUND('',#262,.T.);
#176=FACE_OUTER_BOUND('',#263,.T.);
#177=FACE_OUTER_BOUND('',#264,.T.);
#178=FACE_OUTER_BOUND('',#265,.T.);
#179=FACE_OUTER_BOUND('',#266,.T.);
#180=FACE_OUTER_BOUND('',#267,.T.);
#181=FACE_OUTER_BOUND('',#268,.T.);
#182=FACE_OUTER_BOUND('',#269,.T.);
#183=FACE_OUTER_BOUND('',#270,.T.);
#184=FACE_OUTER_BOUND('',#271,.T.);
#185=FACE_OUTER_BOUND('',#272,.T.);
#186=EDGE_LOOP('',(#734,#735,#736,#737));
#187=EDGE_LOOP('',(#738,#739,#740,#741));
#188=EDGE_LOOP('',(#742,#743,#744,#745));
#189=EDGE_LOOP('',(#746,#747,#748,#749));
#190=EDGE_LOOP('',(#750,#751,#752,#753));
#191=EDGE_LOOP('',(#754,#755,#756,#757));
#192=EDGE_LOOP('',(#758,#759,#760,#761,#762,#763,#764,#765,#766,#767,#768,
#769,#770,#771,#772,#773));
#193=EDGE_LOOP('',(#774,#775,#776,#777));
#194=EDGE_LOOP('',(#778,#779,#780,#781));
#195=EDGE_LOOP('',(#782));
#196=EDGE_LOOP('',(#783));
#197=EDGE_LOOP('',(#784,#785,#786,#787));
#198=EDGE_LOOP('',(#788,#789,#790,#791));
#199=EDGE_LOOP('',(#792,#793,#794,#795));
#200=EDGE_LOOP('',(#796,#797,#798,#799));
#201=EDGE_LOOP('',(#800));
#202=EDGE_LOOP('',(#801));
#203=EDGE_LOOP('',(#802,#803,#804,#805));
#204=EDGE_LOOP('',(#806,#807,#808,#809));
#205=EDGE_LOOP('',(#810));
#206=EDGE_LOOP('',(#811));
#207=EDGE_LOOP('',(#812,#813,#814,#815));
#208=EDGE_LOOP('',(#816,#817,#818,#819));
#209=EDGE_LOOP('',(#820,#821,#822,#823));
#210=EDGE_LOOP('',(#824,#825,#826,#827));
#211=EDGE_LOOP('',(#828,#829,#830,#831));
#212=EDGE_LOOP('',(#832,#833,#834,#835));
#213=EDGE_LOOP('',(#836,#837,#838,#839));
#214=EDGE_LOOP('',(#840,#841,#842,#843));
#215=EDGE_LOOP('',(#844,#845,#846,#847));
#216=EDGE_LOOP('',(#848,#849,#850,#851));
#217=EDGE_LOOP('',(#852,#853,#854,#855));
#218=EDGE_LOOP('',(#856,#857,#858,#859));
#219=EDGE_LOOP('',(#860,#861,#862,#863));
#220=EDGE_LOOP('',(#864,#865,#866,#867));
#221=EDGE_LOOP('',(#868,#869,#870,#871));
#222=EDGE_LOOP('',(#872,#873,#874,#875));
#223=EDGE_LOOP('',(#876,#877,#878,#879));
#224=EDGE_LOOP('',(#880,#881,#882,#883));
#225=EDGE_LOOP('',(#884,#885,#886,#887));
#226=EDGE_LOOP('',(#888,#889,#890,#891,#892,#893,#894,#895,#896,#897,#898,
#899,#900,#901,#902,#903,#904,#905));
#227=EDGE_LOOP('',(#906));
#228=EDGE_LOOP('',(#907,#908,#909,#910));
#229=EDGE_LOOP('',(#911));
#230=EDGE_LOOP('',(#912));
#231=EDGE_LOOP('',(#913));
#232=EDGE_LOOP('',(#914));
#233=EDGE_LOOP('',(#915));
#234=EDGE_LOOP('',(#916));
#235=EDGE_LOOP('',(#917));
#236=EDGE_LOOP('',(#918,#919,#920,#921,#922,#923));
#237=EDGE_LOOP('',(#924));
#238=EDGE_LOOP('',(#925));
#239=EDGE_LOOP('',(#926));
#240=EDGE_LOOP('',(#927));
#241=EDGE_LOOP('',(#928));
#242=EDGE_LOOP('',(#929));
#243=EDGE_LOOP('',(#930));
#244=EDGE_LOOP('',(#931));
#245=EDGE_LOOP('',(#932));
#246=EDGE_LOOP('',(#933));
#247=EDGE_LOOP('',(#934,#935,#936,#937));
#248=EDGE_LOOP('',(#938,#939,#940,#941));
#249=EDGE_LOOP('',(#942,#943,#944,#945));
#250=EDGE_LOOP('',(#946,#947,#948,#949));
#251=EDGE_LOOP('',(#950,#951,#952,#953));
#252=EDGE_LOOP('',(#954,#955,#956,#957));
#253=EDGE_LOOP('',(#958,#959,#960,#961));
#254=EDGE_LOOP('',(#962,#963,#964,#965));
#255=EDGE_LOOP('',(#966,#967,#968,#969));
#256=EDGE_LOOP('',(#970,#971,#972,#973));
#257=EDGE_LOOP('',(#974,#975,#976,#977));
#258=EDGE_LOOP('',(#978,#979,#980,#981));
#259=EDGE_LOOP('',(#982,#983,#984,#985));
#260=EDGE_LOOP('',(#986,#987,#988,#989));
#261=EDGE_LOOP('',(#990,#991,#992,#993));
#262=EDGE_LOOP('',(#994,#995,#996,#997));
#263=EDGE_LOOP('',(#998,#999,#1000,#1001));
#264=EDGE_LOOP('',(#1002,#1003,#1004,#1005,#1006));
#265=EDGE_LOOP('',(#1007,#1008,#1009,#1010,#1011));
#266=EDGE_LOOP('',(#1012,#1013,#1014,#1015));
#267=EDGE_LOOP('',(#1016,#1017,#1018,#1019));
#268=EDGE_LOOP('',(#1020,#1021,#1022,#1023,#1024));
#269=EDGE_LOOP('',(#1025,#1026,#1027,#1028,#1029));
#270=EDGE_LOOP('',(#1030,#1031,#1032,#1033,#1034));
#271=EDGE_LOOP('',(#1035,#1036,#1037,#1038,#1039));
#272=EDGE_LOOP('',(#1040,#1041,#1042,#1043));
#273=LINE('',#1605,#378);
#274=LINE('',#1607,#379);
#275=LINE('',#1609,#380);
#276=LINE('',#1610,#381);
#277=LINE('',#1613,#382);
#278=LINE('',#1615,#383);
#279=LINE('',#1616,#384);
#280=LINE('',#1620,#385);
#281=LINE('',#1622,#386);
#282=LINE('',#1624,#387);
#283=LINE('',#1625,#388);
#284=LINE('',#1628,#389);
#285=LINE('',#1630,#390);
#286=LINE('',#1631,#391);
#287=LINE('',#1635,#392);
#288=LINE('',#1637,#393);
#289=LINE('',#1639,#394);
#290=LINE('',#1640,#395);
#291=LINE('',#1643,#396);
#292=LINE('',#1645,#397);
#293=LINE('',#1646,#398);
#294=LINE('',#1650,#399);
#295=LINE('',#1652,#400);
#296=LINE('',#1654,#401);
#297=LINE('',#1656,#402);
#298=LINE('',#1658,#403);
#299=LINE('',#1660,#404);
#300=LINE('',#1662,#405);
#301=LINE('',#1664,#406);
#302=LINE('',#1666,#407);
#303=LINE('',#1668,#408);
#304=LINE('',#1670,#409);
#305=LINE('',#1672,#410);
#306=LINE('',#1674,#411);
#307=LINE('',#1676,#412);
#308=LINE('',#1678,#413);
#309=LINE('',#1679,#414);
#310=LINE('',#1684,#415);
#311=LINE('',#1689,#416);
#312=LINE('',#1693,#417);
#313=LINE('',#1699,#418);
#314=LINE('',#1703,#419);
#315=LINE('',#1707,#420);
#316=LINE('',#1713,#421);
#317=LINE('',#1720,#422);
#318=LINE('',#1726,#423);
#319=LINE('',#1733,#424);
#320=LINE('',#1737,#425);
#321=LINE('',#1741,#426);
#322=LINE('',#1745,#427);
#323=LINE('',#1749,#428);
#324=LINE('',#1754,#429);
#325=LINE('',#1758,#430);
#326=LINE('',#1762,#431);
#327=LINE('',#1764,#432);
#328=LINE('',#1766,#433);
#329=LINE('',#1767,#434);
#330=LINE('',#1771,#435);
#331=LINE('',#1777,#436);
#332=LINE('',#1778,#437);
#333=LINE('',#1779,#438);
#334=LINE('',#1785,#439);
#335=LINE('',#1788,#440);
#336=LINE('',#1791,#441);
#337=LINE('',#1792,#442);
#338=LINE('',#1794,#443);
#339=LINE('',#1795,#444);
#340=LINE('',#1798,#445);
#341=LINE('',#1801,#446);
#342=LINE('',#1802,#447);
#343=LINE('',#1805,#448);
#344=LINE('',#1808,#449);
#345=LINE('',#1809,#450);
#346=LINE('',#1810,#451);
#347=LINE('',#1811,#452);
#348=LINE('',#1812,#453);
#349=LINE('',#1816,#454);
#350=LINE('',#1818,#455);
#351=LINE('',#1820,#456);
#352=LINE('',#1822,#457);
#353=LINE('',#1841,#458);
#354=LINE('',#1843,#459);
#355=LINE('',#1844,#460);
#356=LINE('',#1859,#461);
#357=LINE('',#1862,#462);
#358=LINE('',#1865,#463);
#359=LINE('',#1868,#464);
#360=LINE('',#1871,#465);
#361=LINE('',#1874,#466);
#362=LINE('',#1877,#467);
#363=LINE('',#1880,#468);
#364=LINE('',#1882,#469);
#365=LINE('',#1884,#470);
#366=LINE('',#1886,#471);
#367=LINE('',#1888,#472);
#368=LINE('',#1892,#473);
#369=LINE('',#1895,#474);
#370=LINE('',#1898,#475);
#371=LINE('',#1901,#476);
#372=LINE('',#1903,#477);
#373=LINE('',#1905,#478);
#374=LINE('',#1908,#479);
#375=LINE('',#1909,#480);
#376=LINE('',#1913,#481);
#377=LINE('',#1915,#482);
#378=VECTOR('',#1270,10.);
#379=VECTOR('',#1271,10.);
#380=VECTOR('',#1272,10.);
#381=VECTOR('',#1273,10.);
#382=VECTOR('',#1276,10.);
#383=VECTOR('',#1277,10.);
#384=VECTOR('',#1278,10.);
#385=VECTOR('',#1281,10.);
#386=VECTOR('',#1282,10.);
#387=VECTOR('',#1283,10.);
#388=VECTOR('',#1284,10.);
#389=VECTOR('',#1287,10.);
#390=VECTOR('',#1288,10.);
#391=VECTOR('',#1289,10.);
#392=VECTOR('',#1292,10.);
#393=VECTOR('',#1293,10.);
#394=VECTOR('',#1294,10.);
#395=VECTOR('',#1295,10.);
#396=VECTOR('',#1298,10.);
#397=VECTOR('',#1299,10.);
#398=VECTOR('',#1300,10.);
#399=VECTOR('',#1303,10.);
#400=VECTOR('',#1304,10.);
#401=VECTOR('',#1305,10.);
#402=VECTOR('',#1306,10.);
#403=VECTOR('',#1307,10.);
#404=VECTOR('',#1308,10.);
#405=VECTOR('',#1309,10.);
#406=VECTOR('',#1310,10.);
#407=VECTOR('',#1311,10.);
#408=VECTOR('',#1312,10.);
#409=VECTOR('',#1313,10.);
#410=VECTOR('',#1314,10.);
#411=VECTOR('',#1315,10.);
#412=VECTOR('',#1316,10.);
#413=VECTOR('',#1317,10.);
#414=VECTOR('',#1318,10.);
#415=VECTOR('',#1323,1.85000000000002);
#416=VECTOR('',#1328,10.);
#417=VECTOR('',#1331,10.);
#418=VECTOR('',#1338,1.35000000000002);
#419=VECTOR('',#1343,1.85000000000002);
#420=VECTOR('',#1348,1.35000000000002);
#421=VECTOR('',#1355,2.75);
#422=VECTOR('',#1364,3.00000000000001);
#423=VECTOR('',#1371,2.75);
#424=VECTOR('',#1380,3.00000000000001);
#425=VECTOR('',#1385,1.85000000000002);
#426=VECTOR('',#1390,1.35000000000002);
#427=VECTOR('',#1395,1.85000000000002);
#428=VECTOR('',#1400,1.35000000000002);
#429=VECTOR('',#1407,3.25000000000001);
#430=VECTOR('',#1412,3.25000000000001);
#431=VECTOR('',#1415,10.);
#432=VECTOR('',#1416,10.);
#433=VECTOR('',#1417,10.);
#434=VECTOR('',#1418,10.);
#435=VECTOR('',#1421,10.);
#436=VECTOR('',#1428,10.);
#437=VECTOR('',#1429,10.);
#438=VECTOR('',#1430,10.);
#439=VECTOR('',#1439,10.);
#440=VECTOR('',#1442,10.);
#441=VECTOR('',#1445,10.);
#442=VECTOR('',#1446,10.);
#443=VECTOR('',#1449,10.);
#444=VECTOR('',#1450,10.);
#445=VECTOR('',#1453,10.);
#446=VECTOR('',#1458,10.);
#447=VECTOR('',#1459,10.);
#448=VECTOR('',#1464,10.);
#449=VECTOR('',#1469,10.);
#450=VECTOR('',#1470,10.);
#451=VECTOR('',#1471,10.);
#452=VECTOR('',#1472,10.);
#453=VECTOR('',#1473,10.);
#454=VECTOR('',#1476,10.);
#455=VECTOR('',#1477,10.);
#456=VECTOR('',#1478,10.);
#457=VECTOR('',#1481,10.);
#458=VECTOR('',#1500,10.);
#459=VECTOR('',#1501,10.);
#460=VECTOR('',#1502,10.);
#461=VECTOR('',#1517,2.40000000000001);
#462=VECTOR('',#1522,2.10000000000001);
#463=VECTOR('',#1525,2.4);
#464=VECTOR('',#1530,2.1);
#465=VECTOR('',#1533,2.40000000000001);
#466=VECTOR('',#1538,2.10000000000001);
#467=VECTOR('',#1541,2.4);
#468=VECTOR('',#1546,2.10000000000001);
#469=VECTOR('',#1549,10.);
#470=VECTOR('',#1552,10.);
#471=VECTOR('',#1555,10.);
#472=VECTOR('',#1558,10.);
#473=VECTOR('',#1563,2.40000000000001);
#474=VECTOR('',#1568,2.10000000000001);
#475=VECTOR('',#1571,2.4);
#476=VECTOR('',#1576,2.1);
#477=VECTOR('',#1579,10.);
#478=VECTOR('',#1582,10.);
#479=VECTOR('',#1587,10.);
#480=VECTOR('',#1588,10.);
#481=VECTOR('',#1595,10.);
#482=VECTOR('',#1598,10.);
#483=VERTEX_POINT('',#1603);
#484=VERTEX_POINT('',#1604);
#485=VERTEX_POINT('',#1606);
#486=VERTEX_POINT('',#1608);
#487=VERTEX_POINT('',#1612);
#488=VERTEX_POINT('',#1614);
#489=VERTEX_POINT('',#1618);
#490=VERTEX_POINT('',#1619);
#491=VERTEX_POINT('',#1621);
#492=VERTEX_POINT('',#1623);
#493=VERTEX_POINT('',#1627);
#494=VERTEX_POINT('',#1629);
#495=VERTEX_POINT('',#1633);
#496=VERTEX_POINT('',#1634);
#497=VERTEX_POINT('',#1636);
#498=VERTEX_POINT('',#1638);
#499=VERTEX_POINT('',#1642);
#500=VERTEX_POINT('',#1644);
#501=VERTEX_POINT('',#1648);
#502=VERTEX_POINT('',#1649);
#503=VERTEX_POINT('',#1651);
#504=VERTEX_POINT('',#1653);
#505=VERTEX_POINT('',#1655);
#506=VERTEX_POINT('',#1657);
#507=VERTEX_POINT('',#1659);
#508=VERTEX_POINT('',#1661);
#509=VERTEX_POINT('',#1663);
#510=VERTEX_POINT('',#1665);
#511=VERTEX_POINT('',#1667);
#512=VERTEX_POINT('',#1669);
#513=VERTEX_POINT('',#1671);
#514=VERTEX_POINT('',#1673);
#515=VERTEX_POINT('',#1675);
#516=VERTEX_POINT('',#1677);
#517=VERTEX_POINT('',#1681);
#518=VERTEX_POINT('',#1683);
#519=VERTEX_POINT('',#1687);
#520=VERTEX_POINT('',#1688);
#521=VERTEX_POINT('',#1690);
#522=VERTEX_POINT('',#1692);
#523=VERTEX_POINT('',#1695);
#524=VERTEX_POINT('',#1698);
#525=VERTEX_POINT('',#1702);
#526=VERTEX_POINT('',#1706);
#527=VERTEX_POINT('',#1710);
#528=VERTEX_POINT('',#1712);
#529=VERTEX_POINT('',#1716);
#530=VERTEX_POINT('',#1719);
#531=VERTEX_POINT('',#1723);
#532=VERTEX_POINT('',#1725);
#533=VERTEX_POINT('',#1729);
#534=VERTEX_POINT('',#1732);
#535=VERTEX_POINT('',#1736);
#536=VERTEX_POINT('',#1740);
#537=VERTEX_POINT('',#1744);
#538=VERTEX_POINT('',#1748);
#539=VERTEX_POINT('',#1752);
#540=VERTEX_POINT('',#1756);
#541=VERTEX_POINT('',#1760);
#542=VERTEX_POINT('',#1761);
#543=VERTEX_POINT('',#1763);
#544=VERTEX_POINT('',#1765);
#545=VERTEX_POINT('',#1769);
#546=VERTEX_POINT('',#1770);
#547=VERTEX_POINT('',#1775);
#548=VERTEX_POINT('',#1776);
#549=VERTEX_POINT('',#1784);
#550=VERTEX_POINT('',#1786);
#551=VERTEX_POINT('',#1790);
#552=VERTEX_POINT('',#1797);
#553=VERTEX_POINT('',#1813);
#554=VERTEX_POINT('',#1815);
#555=VERTEX_POINT('',#1817);
#556=VERTEX_POINT('',#1819);
#557=VERTEX_POINT('',#1823);
#558=VERTEX_POINT('',#1825);
#559=VERTEX_POINT('',#1827);
#560=VERTEX_POINT('',#1829);
#561=VERTEX_POINT('',#1831);
#562=VERTEX_POINT('',#1833);
#563=VERTEX_POINT('',#1836);
#564=VERTEX_POINT('',#1838);
#565=VERTEX_POINT('',#1840);
#566=VERTEX_POINT('',#1842);
#567=VERTEX_POINT('',#1845);
#568=VERTEX_POINT('',#1847);
#569=VERTEX_POINT('',#1849);
#570=VERTEX_POINT('',#1851);
#571=VERTEX_POINT('',#1853);
#572=VERTEX_POINT('',#1855);
#573=VERTEX_POINT('',#1858);
#574=VERTEX_POINT('',#1864);
#575=VERTEX_POINT('',#1870);
#576=VERTEX_POINT('',#1876);
#577=VERTEX_POINT('',#1891);
#578=VERTEX_POINT('',#1897);
#579=EDGE_CURVE('',#483,#484,#273,.T.);
#580=EDGE_CURVE('',#484,#485,#274,.T.);
#581=EDGE_CURVE('',#485,#486,#275,.T.);
#582=EDGE_CURVE('',#486,#483,#276,.T.);
#583=EDGE_CURVE('',#487,#484,#277,.T.);
#584=EDGE_CURVE('',#487,#488,#278,.T.);
#585=EDGE_CURVE('',#488,#485,#279,.F.);
#586=EDGE_CURVE('',#489,#490,#280,.T.);
#587=EDGE_CURVE('',#490,#491,#281,.T.);
#588=EDGE_CURVE('',#491,#492,#282,.T.);
#589=EDGE_CURVE('',#492,#489,#283,.T.);
#590=EDGE_CURVE('',#490,#493,#284,.F.);
#591=EDGE_CURVE('',#494,#493,#285,.T.);
#592=EDGE_CURVE('',#494,#491,#286,.F.);
#593=EDGE_CURVE('',#495,#496,#287,.T.);
#594=EDGE_CURVE('',#496,#497,#288,.T.);
#595=EDGE_CURVE('',#497,#498,#289,.T.);
#596=EDGE_CURVE('',#498,#495,#290,.T.);
#597=EDGE_CURVE('',#499,#496,#291,.T.);
#598=EDGE_CURVE('',#499,#500,#292,.T.);
#599=EDGE_CURVE('',#500,#497,#293,.F.);
#600=EDGE_CURVE('',#501,#502,#294,.T.);
#601=EDGE_CURVE('',#503,#501,#295,.T.);
#602=EDGE_CURVE('',#504,#503,#296,.T.);
#603=EDGE_CURVE('',#504,#505,#297,.F.);
#604=EDGE_CURVE('',#506,#505,#298,.T.);
#605=EDGE_CURVE('',#507,#506,#299,.T.);
#606=EDGE_CURVE('',#507,#508,#300,.T.);
#607=EDGE_CURVE('',#508,#509,#301,.F.);
#608=EDGE_CURVE('',#510,#509,#302,.T.);
#609=EDGE_CURVE('',#510,#511,#303,.T.);
#610=EDGE_CURVE('',#512,#511,#304,.T.);
#611=EDGE_CURVE('',#513,#512,#305,.T.);
#612=EDGE_CURVE('',#514,#513,#306,.T.);
#613=EDGE_CURVE('',#515,#514,#307,.T.);
#614=EDGE_CURVE('',#515,#516,#308,.T.);
#615=EDGE_CURVE('',#516,#502,#309,.F.);
#616=EDGE_CURVE('',#517,#517,#54,.T.);
#617=EDGE_CURVE('',#517,#518,#310,.T.);
#618=EDGE_CURVE('',#518,#518,#55,.T.);
#619=EDGE_CURVE('',#519,#520,#311,.T.);
#620=EDGE_CURVE('',#521,#519,#56,.T.);
#621=EDGE_CURVE('',#522,#521,#312,.T.);
#622=EDGE_CURVE('',#520,#522,#57,.T.);
#623=EDGE_CURVE('',#523,#523,#58,.T.);
#624=EDGE_CURVE('',#518,#524,#313,.T.);
#625=EDGE_CURVE('',#524,#524,#59,.T.);
#626=EDGE_CURVE('',#523,#525,#314,.T.);
#627=EDGE_CURVE('',#525,#525,#60,.T.);
#628=EDGE_CURVE('',#525,#526,#315,.T.);
#629=EDGE_CURVE('',#526,#526,#61,.T.);
#630=EDGE_CURVE('',#527,#527,#62,.T.);
#631=EDGE_CURVE('',#527,#528,#316,.T.);
#632=EDGE_CURVE('',#528,#528,#63,.T.);
#633=EDGE_CURVE('',#529,#529,#64,.T.);
#634=EDGE_CURVE('',#528,#530,#317,.T.);
#635=EDGE_CURVE('',#530,#530,#65,.T.);
#636=EDGE_CURVE('',#531,#531,#66,.T.);
#637=EDGE_CURVE('',#531,#532,#318,.T.);
#638=EDGE_CURVE('',#532,#532,#67,.T.);
#639=EDGE_CURVE('',#533,#533,#68,.T.);
#640=EDGE_CURVE('',#532,#534,#319,.T.);
#641=EDGE_CURVE('',#534,#534,#69,.T.);
#642=EDGE_CURVE('',#529,#535,#320,.T.);
#643=EDGE_CURVE('',#535,#535,#70,.T.);
#644=EDGE_CURVE('',#535,#536,#321,.T.);
#645=EDGE_CURVE('',#536,#536,#71,.T.);
#646=EDGE_CURVE('',#533,#537,#322,.T.);
#647=EDGE_CURVE('',#537,#537,#72,.T.);
#648=EDGE_CURVE('',#537,#538,#323,.T.);
#649=EDGE_CURVE('',#538,#538,#73,.T.);
#650=EDGE_CURVE('',#539,#539,#74,.T.);
#651=EDGE_CURVE('',#539,#530,#324,.T.);
#652=EDGE_CURVE('',#540,#540,#75,.T.);
#653=EDGE_CURVE('',#540,#534,#325,.T.);
#654=EDGE_CURVE('',#541,#542,#326,.T.);
#655=EDGE_CURVE('',#542,#543,#327,.T.);
#656=EDGE_CURVE('',#543,#544,#328,.T.);
#657=EDGE_CURVE('',#544,#541,#329,.T.);
#658=EDGE_CURVE('',#545,#546,#330,.T.);
#659=EDGE_CURVE('',#546,#542,#76,.T.);
#660=EDGE_CURVE('',#541,#545,#77,.T.);
#661=EDGE_CURVE('',#547,#548,#331,.T.);
#662=EDGE_CURVE('',#548,#546,#332,.T.);
#663=EDGE_CURVE('',#545,#547,#333,.T.);
#664=EDGE_CURVE('',#543,#548,#78,.T.);
#665=EDGE_CURVE('',#547,#544,#79,.T.);
#666=EDGE_CURVE('',#541,#549,#334,.T.);
#667=EDGE_CURVE('',#550,#549,#80,.T.);
#668=EDGE_CURVE('',#545,#550,#335,.T.);
#669=EDGE_CURVE('',#544,#551,#336,.T.);
#670=EDGE_CURVE('',#549,#551,#337,.T.);
#671=EDGE_CURVE('',#551,#519,#338,.T.);
#672=EDGE_CURVE('',#520,#549,#339,.T.);
#673=EDGE_CURVE('',#552,#521,#340,.T.);
#674=EDGE_CURVE('',#551,#552,#81,.T.);
#675=EDGE_CURVE('',#550,#522,#341,.T.);
#676=EDGE_CURVE('',#552,#550,#342,.T.);
#677=EDGE_CURVE('',#547,#552,#343,.T.);
#678=EDGE_CURVE('',#486,#506,#344,.T.);
#679=EDGE_CURVE('',#505,#489,#345,.T.);
#680=EDGE_CURVE('',#492,#501,#346,.T.);
#681=EDGE_CURVE('',#502,#495,#347,.T.);
#682=EDGE_CURVE('',#498,#514,#348,.T.);
#683=EDGE_CURVE('',#513,#553,#82,.T.);
#684=EDGE_CURVE('',#553,#554,#349,.F.);
#685=EDGE_CURVE('',#554,#555,#350,.F.);
#686=EDGE_CURVE('',#555,#556,#351,.F.);
#687=EDGE_CURVE('',#556,#510,#83,.T.);
#688=EDGE_CURVE('',#509,#483,#352,.T.);
#689=EDGE_CURVE('',#557,#557,#84,.T.);
#690=EDGE_CURVE('',#558,#558,#85,.T.);
#691=EDGE_CURVE('',#559,#559,#86,.T.);
#692=EDGE_CURVE('',#560,#560,#87,.T.);
#693=EDGE_CURVE('',#561,#561,#88,.T.);
#694=EDGE_CURVE('',#562,#562,#89,.T.);
#695=EDGE_CURVE('',#563,#512,#90,.T.);
#696=EDGE_CURVE('',#511,#564,#91,.T.);
#697=EDGE_CURVE('',#565,#564,#353,.T.);
#698=EDGE_CURVE('',#566,#565,#354,.T.);
#699=EDGE_CURVE('',#563,#566,#355,.T.);
#700=EDGE_CURVE('',#567,#567,#92,.T.);
#701=EDGE_CURVE('',#568,#568,#93,.T.);
#702=EDGE_CURVE('',#569,#569,#94,.T.);
#703=EDGE_CURVE('',#570,#570,#95,.T.);
#704=EDGE_CURVE('',#571,#571,#96,.T.);
#705=EDGE_CURVE('',#572,#572,#97,.T.);
#706=EDGE_CURVE('',#572,#573,#356,.T.);
#707=EDGE_CURVE('',#573,#573,#98,.T.);
#708=EDGE_CURVE('',#557,#573,#357,.T.);
#709=EDGE_CURVE('',#569,#574,#358,.T.);
#710=EDGE_CURVE('',#574,#574,#99,.T.);
#711=EDGE_CURVE('',#558,#574,#359,.T.);
#712=EDGE_CURVE('',#571,#575,#360,.T.);
#713=EDGE_CURVE('',#575,#575,#100,.T.);
#714=EDGE_CURVE('',#560,#575,#361,.T.);
#715=EDGE_CURVE('',#570,#576,#362,.T.);
#716=EDGE_CURVE('',#576,#576,#101,.T.);
#717=EDGE_CURVE('',#559,#576,#363,.T.);
#718=EDGE_CURVE('',#553,#563,#364,.T.);
#719=EDGE_CURVE('',#564,#556,#365,.T.);
#720=EDGE_CURVE('',#566,#554,#366,.F.);
#721=EDGE_CURVE('',#565,#555,#367,.T.);
#722=EDGE_CURVE('',#568,#577,#368,.T.);
#723=EDGE_CURVE('',#577,#577,#102,.T.);
#724=EDGE_CURVE('',#561,#577,#369,.T.);
#725=EDGE_CURVE('',#567,#578,#370,.T.);
#726=EDGE_CURVE('',#578,#578,#103,.T.);
#727=EDGE_CURVE('',#562,#578,#371,.T.);
#728=EDGE_CURVE('',#508,#487,#372,.F.);
#729=EDGE_CURVE('',#507,#488,#373,.T.);
#730=EDGE_CURVE('',#493,#504,#374,.F.);
#731=EDGE_CURVE('',#503,#494,#375,.F.);
#732=EDGE_CURVE('',#516,#499,#376,.F.);
#733=EDGE_CURVE('',#515,#500,#377,.T.);
#734=ORIENTED_EDGE('',*,*,#579,.T.);
#735=ORIENTED_EDGE('',*,*,#580,.T.);
#736=ORIENTED_EDGE('',*,*,#581,.T.);
#737=ORIENTED_EDGE('',*,*,#582,.T.);
#738=ORIENTED_EDGE('',*,*,#580,.F.);
#739=ORIENTED_EDGE('',*,*,#583,.F.);
#740=ORIENTED_EDGE('',*,*,#584,.T.);
#741=ORIENTED_EDGE('',*,*,#585,.T.);
#742=ORIENTED_EDGE('',*,*,#586,.T.);
#743=ORIENTED_EDGE('',*,*,#587,.T.);
#744=ORIENTED_EDGE('',*,*,#588,.T.);
#745=ORIENTED_EDGE('',*,*,#589,.T.);
#746=ORIENTED_EDGE('',*,*,#587,.F.);
#747=ORIENTED_EDGE('',*,*,#590,.T.);
#748=ORIENTED_EDGE('',*,*,#591,.F.);
#749=ORIENTED_EDGE('',*,*,#592,.T.);
#750=ORIENTED_EDGE('',*,*,#593,.T.);
#751=ORIENTED_EDGE('',*,*,#594,.T.);
#752=ORIENTED_EDGE('',*,*,#595,.T.);
#753=ORIENTED_EDGE('',*,*,#596,.T.);
#754=ORIENTED_EDGE('',*,*,#594,.F.);
#755=ORIENTED_EDGE('',*,*,#597,.F.);
#756=ORIENTED_EDGE('',*,*,#598,.T.);
#757=ORIENTED_EDGE('',*,*,#599,.T.);
#758=ORIENTED_EDGE('',*,*,#600,.F.);
#759=ORIENTED_EDGE('',*,*,#601,.F.);
#760=ORIENTED_EDGE('',*,*,#602,.F.);
#761=ORIENTED_EDGE('',*,*,#603,.T.);
#762=ORIENTED_EDGE('',*,*,#604,.F.);
#763=ORIENTED_EDGE('',*,*,#605,.F.);
#764=ORIENTED_EDGE('',*,*,#606,.T.);
#765=ORIENTED_EDGE('',*,*,#607,.T.);
#766=ORIENTED_EDGE('',*,*,#608,.F.);
#767=ORIENTED_EDGE('',*,*,#609,.T.);
#768=ORIENTED_EDGE('',*,*,#610,.F.);
#769=ORIENTED_EDGE('',*,*,#611,.F.);
#770=ORIENTED_EDGE('',*,*,#612,.F.);
#771=ORIENTED_EDGE('',*,*,#613,.F.);
#772=ORIENTED_EDGE('',*,*,#614,.T.);
#773=ORIENTED_EDGE('',*,*,#615,.T.);
#774=ORIENTED_EDGE('',*,*,#616,.T.);
#775=ORIENTED_EDGE('',*,*,#617,.T.);
#776=ORIENTED_EDGE('',*,*,#618,.T.);
#777=ORIENTED_EDGE('',*,*,#617,.F.);
#778=ORIENTED_EDGE('',*,*,#619,.F.);
#779=ORIENTED_EDGE('',*,*,#620,.F.);
#780=ORIENTED_EDGE('',*,*,#621,.F.);
#781=ORIENTED_EDGE('',*,*,#622,.F.);
#782=ORIENTED_EDGE('',*,*,#623,.F.);
#783=ORIENTED_EDGE('',*,*,#616,.F.);
#784=ORIENTED_EDGE('',*,*,#618,.F.);
#785=ORIENTED_EDGE('',*,*,#624,.T.);
#786=ORIENTED_EDGE('',*,*,#625,.F.);
#787=ORIENTED_EDGE('',*,*,#624,.F.);
#788=ORIENTED_EDGE('',*,*,#623,.T.);
#789=ORIENTED_EDGE('',*,*,#626,.T.);
#790=ORIENTED_EDGE('',*,*,#627,.T.);
#791=ORIENTED_EDGE('',*,*,#626,.F.);
#792=ORIENTED_EDGE('',*,*,#627,.F.);
#793=ORIENTED_EDGE('',*,*,#628,.T.);
#794=ORIENTED_EDGE('',*,*,#629,.F.);
#795=ORIENTED_EDGE('',*,*,#628,.F.);
#796=ORIENTED_EDGE('',*,*,#630,.T.);
#797=ORIENTED_EDGE('',*,*,#631,.T.);
#798=ORIENTED_EDGE('',*,*,#632,.T.);
#799=ORIENTED_EDGE('',*,*,#631,.F.);
#800=ORIENTED_EDGE('',*,*,#630,.F.);
#801=ORIENTED_EDGE('',*,*,#633,.F.);
#802=ORIENTED_EDGE('',*,*,#632,.F.);
#803=ORIENTED_EDGE('',*,*,#634,.T.);
#804=ORIENTED_EDGE('',*,*,#635,.F.);
#805=ORIENTED_EDGE('',*,*,#634,.F.);
#806=ORIENTED_EDGE('',*,*,#636,.T.);
#807=ORIENTED_EDGE('',*,*,#637,.T.);
#808=ORIENTED_EDGE('',*,*,#638,.T.);
#809=ORIENTED_EDGE('',*,*,#637,.F.);
#810=ORIENTED_EDGE('',*,*,#636,.F.);
#811=ORIENTED_EDGE('',*,*,#639,.F.);
#812=ORIENTED_EDGE('',*,*,#638,.F.);
#813=ORIENTED_EDGE('',*,*,#640,.T.);
#814=ORIENTED_EDGE('',*,*,#641,.F.);
#815=ORIENTED_EDGE('',*,*,#640,.F.);
#816=ORIENTED_EDGE('',*,*,#633,.T.);
#817=ORIENTED_EDGE('',*,*,#642,.T.);
#818=ORIENTED_EDGE('',*,*,#643,.T.);
#819=ORIENTED_EDGE('',*,*,#642,.F.);
#820=ORIENTED_EDGE('',*,*,#643,.F.);
#821=ORIENTED_EDGE('',*,*,#644,.T.);
#822=ORIENTED_EDGE('',*,*,#645,.F.);
#823=ORIENTED_EDGE('',*,*,#644,.F.);
#824=ORIENTED_EDGE('',*,*,#639,.T.);
#825=ORIENTED_EDGE('',*,*,#646,.T.);
#826=ORIENTED_EDGE('',*,*,#647,.T.);
#827=ORIENTED_EDGE('',*,*,#646,.F.);
#828=ORIENTED_EDGE('',*,*,#647,.F.);
#829=ORIENTED_EDGE('',*,*,#648,.T.);
#830=ORIENTED_EDGE('',*,*,#649,.F.);
#831=ORIENTED_EDGE('',*,*,#648,.F.);
#832=ORIENTED_EDGE('',*,*,#650,.T.);
#833=ORIENTED_EDGE('',*,*,#651,.T.);
#834=ORIENTED_EDGE('',*,*,#635,.T.);
#835=ORIENTED_EDGE('',*,*,#651,.F.);
#836=ORIENTED_EDGE('',*,*,#652,.T.);
#837=ORIENTED_EDGE('',*,*,#653,.T.);
#838=ORIENTED_EDGE('',*,*,#641,.T.);
#839=ORIENTED_EDGE('',*,*,#653,.F.);
#840=ORIENTED_EDGE('',*,*,#654,.T.);
#841=ORIENTED_EDGE('',*,*,#655,.T.);
#842=ORIENTED_EDGE('',*,*,#656,.T.);
#843=ORIENTED_EDGE('',*,*,#657,.T.);
#844=ORIENTED_EDGE('',*,*,#658,.T.);
#845=ORIENTED_EDGE('',*,*,#659,.T.);
#846=ORIENTED_EDGE('',*,*,#654,.F.);
#847=ORIENTED_EDGE('',*,*,#660,.T.);
#848=ORIENTED_EDGE('',*,*,#661,.T.);
#849=ORIENTED_EDGE('',*,*,#662,.T.);
#850=ORIENTED_EDGE('',*,*,#658,.F.);
#851=ORIENTED_EDGE('',*,*,#663,.T.);
#852=ORIENTED_EDGE('',*,*,#656,.F.);
#853=ORIENTED_EDGE('',*,*,#664,.T.);
#854=ORIENTED_EDGE('',*,*,#661,.F.);
#855=ORIENTED_EDGE('',*,*,#665,.T.);
#856=ORIENTED_EDGE('',*,*,#660,.F.);
#857=ORIENTED_EDGE('',*,*,#666,.T.);
#858=ORIENTED_EDGE('',*,*,#667,.F.);
#859=ORIENTED_EDGE('',*,*,#668,.F.);
#860=ORIENTED_EDGE('',*,*,#657,.F.);
#861=ORIENTED_EDGE('',*,*,#669,.T.);
#862=ORIENTED_EDGE('',*,*,#670,.F.);
#863=ORIENTED_EDGE('',*,*,#666,.F.);
#864=ORIENTED_EDGE('',*,*,#671,.T.);
#865=ORIENTED_EDGE('',*,*,#619,.T.);
#866=ORIENTED_EDGE('',*,*,#672,.T.);
#867=ORIENTED_EDGE('',*,*,#670,.T.);
#868=ORIENTED_EDGE('',*,*,#673,.T.);
#869=ORIENTED_EDGE('',*,*,#620,.T.);
#870=ORIENTED_EDGE('',*,*,#671,.F.);
#871=ORIENTED_EDGE('',*,*,#674,.T.);
#872=ORIENTED_EDGE('',*,*,#675,.T.);
#873=ORIENTED_EDGE('',*,*,#621,.T.);
#874=ORIENTED_EDGE('',*,*,#673,.F.);
#875=ORIENTED_EDGE('',*,*,#676,.T.);
#876=ORIENTED_EDGE('',*,*,#672,.F.);
#877=ORIENTED_EDGE('',*,*,#622,.T.);
#878=ORIENTED_EDGE('',*,*,#675,.F.);
#879=ORIENTED_EDGE('',*,*,#667,.T.);
#880=ORIENTED_EDGE('',*,*,#665,.F.);
#881=ORIENTED_EDGE('',*,*,#677,.T.);
#882=ORIENTED_EDGE('',*,*,#674,.F.);
#883=ORIENTED_EDGE('',*,*,#669,.F.);
#884=ORIENTED_EDGE('',*,*,#663,.F.);
#885=ORIENTED_EDGE('',*,*,#668,.T.);
#886=ORIENTED_EDGE('',*,*,#676,.F.);
#887=ORIENTED_EDGE('',*,*,#677,.F.);
#888=ORIENTED_EDGE('',*,*,#678,.T.);
#889=ORIENTED_EDGE('',*,*,#604,.T.);
#890=ORIENTED_EDGE('',*,*,#679,.T.);
#891=ORIENTED_EDGE('',*,*,#589,.F.);
#892=ORIENTED_EDGE('',*,*,#680,.T.);
#893=ORIENTED_EDGE('',*,*,#600,.T.);
#894=ORIENTED_EDGE('',*,*,#681,.T.);
#895=ORIENTED_EDGE('',*,*,#596,.F.);
#896=ORIENTED_EDGE('',*,*,#682,.T.);
#897=ORIENTED_EDGE('',*,*,#612,.T.);
#898=ORIENTED_EDGE('',*,*,#683,.T.);
#899=ORIENTED_EDGE('',*,*,#684,.T.);
#900=ORIENTED_EDGE('',*,*,#685,.T.);
#901=ORIENTED_EDGE('',*,*,#686,.T.);
#902=ORIENTED_EDGE('',*,*,#687,.T.);
#903=ORIENTED_EDGE('',*,*,#608,.T.);
#904=ORIENTED_EDGE('',*,*,#688,.T.);
#905=ORIENTED_EDGE('',*,*,#582,.F.);
#906=ORIENTED_EDGE('',*,*,#650,.F.);
#907=ORIENTED_EDGE('',*,*,#655,.F.);
#908=ORIENTED_EDGE('',*,*,#659,.F.);
#909=ORIENTED_EDGE('',*,*,#662,.F.);
#910=ORIENTED_EDGE('',*,*,#664,.F.);
#911=ORIENTED_EDGE('',*,*,#689,.T.);
#912=ORIENTED_EDGE('',*,*,#690,.T.);
#913=ORIENTED_EDGE('',*,*,#691,.T.);
#914=ORIENTED_EDGE('',*,*,#692,.T.);
#915=ORIENTED_EDGE('',*,*,#693,.T.);
#916=ORIENTED_EDGE('',*,*,#694,.T.);
#917=ORIENTED_EDGE('',*,*,#652,.F.);
#918=ORIENTED_EDGE('',*,*,#695,.T.);
#919=ORIENTED_EDGE('',*,*,#610,.T.);
#920=ORIENTED_EDGE('',*,*,#696,.T.);
#921=ORIENTED_EDGE('',*,*,#697,.F.);
#922=ORIENTED_EDGE('',*,*,#698,.F.);
#923=ORIENTED_EDGE('',*,*,#699,.F.);
#924=ORIENTED_EDGE('',*,*,#700,.F.);
#925=ORIENTED_EDGE('',*,*,#701,.F.);
#926=ORIENTED_EDGE('',*,*,#702,.F.);
#927=ORIENTED_EDGE('',*,*,#703,.F.);
#928=ORIENTED_EDGE('',*,*,#704,.F.);
#929=ORIENTED_EDGE('',*,*,#705,.F.);
#930=ORIENTED_EDGE('',*,*,#649,.T.);
#931=ORIENTED_EDGE('',*,*,#629,.T.);
#932=ORIENTED_EDGE('',*,*,#625,.T.);
#933=ORIENTED_EDGE('',*,*,#645,.T.);
#934=ORIENTED_EDGE('',*,*,#705,.T.);
#935=ORIENTED_EDGE('',*,*,#706,.T.);
#936=ORIENTED_EDGE('',*,*,#707,.T.);
#937=ORIENTED_EDGE('',*,*,#706,.F.);
#938=ORIENTED_EDGE('',*,*,#689,.F.);
#939=ORIENTED_EDGE('',*,*,#708,.T.);
#940=ORIENTED_EDGE('',*,*,#707,.F.);
#941=ORIENTED_EDGE('',*,*,#708,.F.);
#942=ORIENTED_EDGE('',*,*,#702,.T.);
#943=ORIENTED_EDGE('',*,*,#709,.T.);
#944=ORIENTED_EDGE('',*,*,#710,.T.);
#945=ORIENTED_EDGE('',*,*,#709,.F.);
#946=ORIENTED_EDGE('',*,*,#690,.F.);
#947=ORIENTED_EDGE('',*,*,#711,.T.);
#948=ORIENTED_EDGE('',*,*,#710,.F.);
#949=ORIENTED_EDGE('',*,*,#711,.F.);
#950=ORIENTED_EDGE('',*,*,#704,.T.);
#951=ORIENTED_EDGE('',*,*,#712,.T.);
#952=ORIENTED_EDGE('',*,*,#713,.T.);
#953=ORIENTED_EDGE('',*,*,#712,.F.);
#954=ORIENTED_EDGE('',*,*,#692,.F.);
#955=ORIENTED_EDGE('',*,*,#714,.T.);
#956=ORIENTED_EDGE('',*,*,#713,.F.);
#957=ORIENTED_EDGE('',*,*,#714,.F.);
#958=ORIENTED_EDGE('',*,*,#703,.T.);
#959=ORIENTED_EDGE('',*,*,#715,.T.);
#960=ORIENTED_EDGE('',*,*,#716,.T.);
#961=ORIENTED_EDGE('',*,*,#715,.F.);
#962=ORIENTED_EDGE('',*,*,#691,.F.);
#963=ORIENTED_EDGE('',*,*,#717,.T.);
#964=ORIENTED_EDGE('',*,*,#716,.F.);
#965=ORIENTED_EDGE('',*,*,#717,.F.);
#966=ORIENTED_EDGE('',*,*,#695,.F.);
#967=ORIENTED_EDGE('',*,*,#718,.F.);
#968=ORIENTED_EDGE('',*,*,#683,.F.);
#969=ORIENTED_EDGE('',*,*,#611,.T.);
#970=ORIENTED_EDGE('',*,*,#696,.F.);
#971=ORIENTED_EDGE('',*,*,#609,.F.);
#972=ORIENTED_EDGE('',*,*,#687,.F.);
#973=ORIENTED_EDGE('',*,*,#719,.F.);
#974=ORIENTED_EDGE('',*,*,#718,.T.);
#975=ORIENTED_EDGE('',*,*,#699,.T.);
#976=ORIENTED_EDGE('',*,*,#720,.T.);
#977=ORIENTED_EDGE('',*,*,#684,.F.);
#978=ORIENTED_EDGE('',*,*,#719,.T.);
#979=ORIENTED_EDGE('',*,*,#686,.F.);
#980=ORIENTED_EDGE('',*,*,#721,.F.);
#981=ORIENTED_EDGE('',*,*,#697,.T.);
#982=ORIENTED_EDGE('',*,*,#698,.T.);
#983=ORIENTED_EDGE('',*,*,#721,.T.);
#984=ORIENTED_EDGE('',*,*,#685,.F.);
#985=ORIENTED_EDGE('',*,*,#720,.F.);
#986=ORIENTED_EDGE('',*,*,#701,.T.);
#987=ORIENTED_EDGE('',*,*,#722,.T.);
#988=ORIENTED_EDGE('',*,*,#723,.T.);
#989=ORIENTED_EDGE('',*,*,#722,.F.);
#990=ORIENTED_EDGE('',*,*,#693,.F.);
#991=ORIENTED_EDGE('',*,*,#724,.T.);
#992=ORIENTED_EDGE('',*,*,#723,.F.);
#993=ORIENTED_EDGE('',*,*,#724,.F.);
#994=ORIENTED_EDGE('',*,*,#700,.T.);
#995=ORIENTED_EDGE('',*,*,#725,.T.);
#996=ORIENTED_EDGE('',*,*,#726,.T.);
#997=ORIENTED_EDGE('',*,*,#725,.F.);
#998=ORIENTED_EDGE('',*,*,#694,.F.);
#999=ORIENTED_EDGE('',*,*,#727,.T.);
#1000=ORIENTED_EDGE('',*,*,#726,.F.);
#1001=ORIENTED_EDGE('',*,*,#727,.F.);
#1002=ORIENTED_EDGE('',*,*,#728,.T.);
#1003=ORIENTED_EDGE('',*,*,#583,.T.);
#1004=ORIENTED_EDGE('',*,*,#579,.F.);
#1005=ORIENTED_EDGE('',*,*,#688,.F.);
#1006=ORIENTED_EDGE('',*,*,#607,.F.);
#1007=ORIENTED_EDGE('',*,*,#729,.F.);
#1008=ORIENTED_EDGE('',*,*,#605,.T.);
#1009=ORIENTED_EDGE('',*,*,#678,.F.);
#1010=ORIENTED_EDGE('',*,*,#581,.F.);
#1011=ORIENTED_EDGE('',*,*,#585,.F.);
#1012=ORIENTED_EDGE('',*,*,#584,.F.);
#1013=ORIENTED_EDGE('',*,*,#728,.F.);
#1014=ORIENTED_EDGE('',*,*,#606,.F.);
#1015=ORIENTED_EDGE('',*,*,#729,.T.);
#1016=ORIENTED_EDGE('',*,*,#591,.T.);
#1017=ORIENTED_EDGE('',*,*,#730,.T.);
#1018=ORIENTED_EDGE('',*,*,#602,.T.);
#1019=ORIENTED_EDGE('',*,*,#731,.T.);
#1020=ORIENTED_EDGE('',*,*,#679,.F.);
#1021=ORIENTED_EDGE('',*,*,#603,.F.);
#1022=ORIENTED_EDGE('',*,*,#730,.F.);
#1023=ORIENTED_EDGE('',*,*,#590,.F.);
#1024=ORIENTED_EDGE('',*,*,#586,.F.);
#1025=ORIENTED_EDGE('',*,*,#601,.T.);
#1026=ORIENTED_EDGE('',*,*,#680,.F.);
#1027=ORIENTED_EDGE('',*,*,#588,.F.);
#1028=ORIENTED_EDGE('',*,*,#592,.F.);
#1029=ORIENTED_EDGE('',*,*,#731,.F.);
#1030=ORIENTED_EDGE('',*,*,#732,.T.);
#1031=ORIENTED_EDGE('',*,*,#597,.T.);
#1032=ORIENTED_EDGE('',*,*,#593,.F.);
#1033=ORIENTED_EDGE('',*,*,#681,.F.);
#1034=ORIENTED_EDGE('',*,*,#615,.F.);
#1035=ORIENTED_EDGE('',*,*,#733,.F.);
#1036=ORIENTED_EDGE('',*,*,#613,.T.);
#1037=ORIENTED_EDGE('',*,*,#682,.F.);
#1038=ORIENTED_EDGE('',*,*,#595,.F.);
#1039=ORIENTED_EDGE('',*,*,#599,.F.);
#1040=ORIENTED_EDGE('',*,*,#598,.F.);
#1041=ORIENTED_EDGE('',*,*,#732,.F.);
#1042=ORIENTED_EDGE('',*,*,#614,.F.);
#1043=ORIENTED_EDGE('',*,*,#733,.T.);
#1044=PLANE('',#1152);
#1045=PLANE('',#1153);
#1046=PLANE('',#1154);
#1047=PLANE('',#1155);
#1048=PLANE('',#1156);
#1049=PLANE('',#1157);
#1050=PLANE('',#1158);
#1051=PLANE('',#1162);
#1052=PLANE('',#1175);
#1053=PLANE('',#1182);
#1054=PLANE('',#1198);
#1055=PLANE('',#1202);
#1056=PLANE('',#1208);
#1057=PLANE('',#1209);
#1058=PLANE('',#1212);
#1059=PLANE('',#1215);
#1060=PLANE('',#1216);
#1061=PLANE('',#1225);
#1062=PLANE('',#1248);
#1063=PLANE('',#1249);
#1064=PLANE('',#1250);
#1065=PLANE('',#1257);
#1066=PLANE('',#1258);
#1067=PLANE('',#1259);
#1068=PLANE('',#1260);
#1069=PLANE('',#1261);
#1070=PLANE('',#1262);
#1071=PLANE('',#1263);
#1072=PLANE('',#1264);
#1073=PLANE('',#1265);
#1074=ADVANCED_FACE('',(#122),#1044,.T.);
#1075=ADVANCED_FACE('',(#123),#1045,.T.);
#1076=ADVANCED_FACE('',(#124),#1046,.T.);
#1077=ADVANCED_FACE('',(#125),#1047,.T.);
#1078=ADVANCED_FACE('',(#126),#1048,.T.);
#1079=ADVANCED_FACE('',(#127),#1049,.T.);
#1080=ADVANCED_FACE('',(#128),#1050,.F.);
#1081=ADVANCED_FACE('',(#129),#104,.F.);
#1082=ADVANCED_FACE('',(#130,#31,#32),#1051,.T.);
#1083=ADVANCED_FACE('',(#131),#15,.F.);
#1084=ADVANCED_FACE('',(#132),#105,.F.);
#1085=ADVANCED_FACE('',(#133),#16,.F.);
#1086=ADVANCED_FACE('',(#134),#106,.T.);
#1087=ADVANCED_FACE('',(#135,#33),#1052,.T.);
#1088=ADVANCED_FACE('',(#136),#17,.T.);
#1089=ADVANCED_FACE('',(#137),#107,.T.);
#1090=ADVANCED_FACE('',(#138,#34),#1053,.T.);
#1091=ADVANCED_FACE('',(#139),#18,.T.);
#1092=ADVANCED_FACE('',(#140),#108,.F.);
#1093=ADVANCED_FACE('',(#141),#19,.F.);
#1094=ADVANCED_FACE('',(#142),#109,.F.);
#1095=ADVANCED_FACE('',(#143),#20,.F.);
#1096=ADVANCED_FACE('',(#144),#110,.T.);
#1097=ADVANCED_FACE('',(#145),#111,.T.);
#1098=ADVANCED_FACE('',(#146),#1054,.T.);
#1099=ADVANCED_FACE('',(#147),#112,.T.);
#1100=ADVANCED_FACE('',(#148),#1055,.T.);
#1101=ADVANCED_FACE('',(#149),#113,.T.);
#1102=ADVANCED_FACE('',(#150),#21,.T.);
#1103=ADVANCED_FACE('',(#151),#1056,.T.);
#1104=ADVANCED_FACE('',(#152),#1057,.T.);
#1105=ADVANCED_FACE('',(#153),#114,.T.);
#1106=ADVANCED_FACE('',(#154),#1058,.T.);
#1107=ADVANCED_FACE('',(#155),#115,.T.);
#1108=ADVANCED_FACE('',(#156),#22,.T.);
#1109=ADVANCED_FACE('',(#157),#1059,.T.);
#1110=ADVANCED_FACE('',(#158,#35,#36,#37,#38,#39,#40,#41,#42,#43),#1060,
 .T.);
#1111=ADVANCED_FACE('',(#159,#44,#45,#46,#47,#48,#49,#50,#51,#52,#53),#1061,
 .T.);
#1112=ADVANCED_FACE('',(#160),#116,.F.);
#1113=ADVANCED_FACE('',(#161),#23,.F.);
#1114=ADVANCED_FACE('',(#162),#117,.F.);
#1115=ADVANCED_FACE('',(#163),#24,.F.);
#1116=ADVANCED_FACE('',(#164),#118,.F.);
#1117=ADVANCED_FACE('',(#165),#25,.F.);
#1118=ADVANCED_FACE('',(#166),#119,.F.);
#1119=ADVANCED_FACE('',(#167),#26,.F.);
#1120=ADVANCED_FACE('',(#168),#27,.T.);
#1121=ADVANCED_FACE('',(#169),#28,.T.);
#1122=ADVANCED_FACE('',(#170),#1062,.T.);
#1123=ADVANCED_FACE('',(#171),#1063,.T.);
#1124=ADVANCED_FACE('',(#172),#1064,.T.);
#1125=ADVANCED_FACE('',(#173),#120,.F.);
#1126=ADVANCED_FACE('',(#174),#29,.F.);
#1127=ADVANCED_FACE('',(#175),#121,.F.);
#1128=ADVANCED_FACE('',(#176),#30,.F.);
#1129=ADVANCED_FACE('',(#177),#1065,.T.);
#1130=ADVANCED_FACE('',(#178),#1066,.T.);
#1131=ADVANCED_FACE('',(#179),#1067,.F.);
#1132=ADVANCED_FACE('',(#180),#1068,.T.);
#1133=ADVANCED_FACE('',(#181),#1069,.T.);
#1134=ADVANCED_FACE('',(#182),#1070,.T.);
#1135=ADVANCED_FACE('',(#183),#1071,.T.);
#1136=ADVANCED_FACE('',(#184),#1072,.T.);
#1137=ADVANCED_FACE('',(#185),#1073,.F.);
#1138=CLOSED_SHELL('',(#1074,#1075,#1076,#1077,#1078,#1079,#1080,#1081,
#1082,#1083,#1084,#1085,#1086,#1087,#1088,#1089,#1090,#1091,#1092,#1093,
#1094,#1095,#1096,#1097,#1098,#1099,#1100,#1101,#1102,#1103,#1104,#1105,
#1106,#1107,#1108,#1109,#1110,#1111,#1112,#1113,#1114,#1115,#1116,#1117,
#1118,#1119,#1120,#1121,#1122,#1123,#1124,#1125,#1126,#1127,#1128,#1129,
#1130,#1131,#1132,#1133,#1134,#1135,#1136,#1137));
#1139=DERIVED_UNIT_ELEMENT(#1141,1.);
#1140=DERIVED_UNIT_ELEMENT(#1922,-3.);
#1141=(
MASS_UNIT()
NAMED_UNIT(*)
SI_UNIT(.KILO.,.GRAM.)
);
#1142=DERIVED_UNIT((#1139,#1140));
#1143=MEASURE_REPRESENTATION_ITEM('density measure',
POSITIVE_RATIO_MEASURE(1060.),#1142);
#1144=PROPERTY_DEFINITION_REPRESENTATION(#1149,#1146);
#1145=PROPERTY_DEFINITION_REPRESENTATION(#1150,#1147);
#1146=REPRESENTATION('material name',(#1148),#1919);
#1147=REPRESENTATION('density',(#1143),#1919);
#1148=DESCRIPTIVE_REPRESENTATION_ITEM('ABS Plastic','ABS Plastic');
#1149=PROPERTY_DEFINITION('material property','material name',#1929);
#1150=PROPERTY_DEFINITION('material property','density of part',#1929);
#1151=AXIS2_PLACEMENT_3D('',#1601,#1266,#1267);
#1152=AXIS2_PLACEMENT_3D('',#1602,#1268,#1269);
#1153=AXIS2_PLACEMENT_3D('',#1611,#1274,#1275);
#1154=AXIS2_PLACEMENT_3D('',#1617,#1279,#1280);
#1155=AXIS2_PLACEMENT_3D('',#1626,#1285,#1286);
#1156=AXIS2_PLACEMENT_3D('',#1632,#1290,#1291);
#1157=AXIS2_PLACEMENT_3D('',#1641,#1296,#1297);
#1158=AXIS2_PLACEMENT_3D('',#1647,#1301,#1302);
#1159=AXIS2_PLACEMENT_3D('',#1680,#1319,#1320);
#1160=AXIS2_PLACEMENT_3D('',#1682,#1321,#1322);
#1161=AXIS2_PLACEMENT_3D('',#1685,#1324,#1325);
#1162=AXIS2_PLACEMENT_3D('',#1686,#1326,#1327);
#1163=AXIS2_PLACEMENT_3D('',#1691,#1329,#1330);
#1164=AXIS2_PLACEMENT_3D('',#1694,#1332,#1333);
#1165=AXIS2_PLACEMENT_3D('',#1696,#1334,#1335);
#1166=AXIS2_PLACEMENT_3D('',#1697,#1336,#1337);
#1167=AXIS2_PLACEMENT_3D('',#1700,#1339,#1340);
#1168=AXIS2_PLACEMENT_3D('',#1701,#1341,#1342);
#1169=AXIS2_PLACEMENT_3D('',#1704,#1344,#1345);
#1170=AXIS2_PLACEMENT_3D('',#1705,#1346,#1347);
#1171=AXIS2_PLACEMENT_3D('',#1708,#1349,#1350);
#1172=AXIS2_PLACEMENT_3D('',#1709,#1351,#1352);
#1173=AXIS2_PLACEMENT_3D('',#1711,#1353,#1354);
#1174=AXIS2_PLACEMENT_3D('',#1714,#1356,#1357);
#1175=AXIS2_PLACEMENT_3D('',#1715,#1358,#1359);
#1176=AXIS2_PLACEMENT_3D('',#1717,#1360,#1361);
#1177=AXIS2_PLACEMENT_3D('',#1718,#1362,#1363);
#1178=AXIS2_PLACEMENT_3D('',#1721,#1365,#1366);
#1179=AXIS2_PLACEMENT_3D('',#1722,#1367,#1368);
#1180=AXIS2_PLACEMENT_3D('',#1724,#1369,#1370);
#1181=AXIS2_PLACEMENT_3D('',#1727,#1372,#1373);
#1182=AXIS2_PLACEMENT_3D('',#1728,#1374,#1375);
#1183=AXIS2_PLACEMENT_3D('',#1730,#1376,#1377);
#1184=AXIS2_PLACEMENT_3D('',#1731,#1378,#1379);
#1185=AXIS2_PLACEMENT_3D('',#1734,#1381,#1382);
#1186=AXIS2_PLACEMENT_3D('',#1735,#1383,#1384);
#1187=AXIS2_PLACEMENT_3D('',#1738,#1386,#1387);
#1188=AXIS2_PLACEMENT_3D('',#1739,#1388,#1389);
#1189=AXIS2_PLACEMENT_3D('',#1742,#1391,#1392);
#1190=AXIS2_PLACEMENT_3D('',#1743,#1393,#1394);
#1191=AXIS2_PLACEMENT_3D('',#1746,#1396,#1397);
#1192=AXIS2_PLACEMENT_3D('',#1747,#1398,#1399);
#1193=AXIS2_PLACEMENT_3D('',#1750,#1401,#1402);
#1194=AXIS2_PLACEMENT_3D('',#1751,#1403,#1404);
#1195=AXIS2_PLACEMENT_3D('',#1753,#1405,#1406);
#1196=AXIS2_PLACEMENT_3D('',#1755,#1408,#1409);
#1197=AXIS2_PLACEMENT_3D('',#1757,#1410,#1411);
#1198=AXIS2_PLACEMENT_3D('',#1759,#1413,#1414);
#1199=AXIS2_PLACEMENT_3D('',#1768,#1419,#1420);
#1200=AXIS2_PLACEMENT_3D('',#1772,#1422,#1423);
#1201=AXIS2_PLACEMENT_3D('',#1773,#1424,#1425);
#1202=AXIS2_PLACEMENT_3D('',#1774,#1426,#1427);
#1203=AXIS2_PLACEMENT_3D('',#1780,#1431,#1432);
#1204=AXIS2_PLACEMENT_3D('',#1781,#1433,#1434);
#1205=AXIS2_PLACEMENT_3D('',#1782,#1435,#1436);
#1206=AXIS2_PLACEMENT_3D('',#1783,#1437,#1438);
#1207=AXIS2_PLACEMENT_3D('',#1787,#1440,#1441);
#1208=AXIS2_PLACEMENT_3D('',#1789,#1443,#1444);
#1209=AXIS2_PLACEMENT_3D('',#1793,#1447,#1448);
#1210=AXIS2_PLACEMENT_3D('',#1796,#1451,#1452);
#1211=AXIS2_PLACEMENT_3D('',#1799,#1454,#1455);
#1212=AXIS2_PLACEMENT_3D('',#1800,#1456,#1457);
#1213=AXIS2_PLACEMENT_3D('',#1803,#1460,#1461);
#1214=AXIS2_PLACEMENT_3D('',#1804,#1462,#1463);
#1215=AXIS2_PLACEMENT_3D('',#1806,#1465,#1466);
#1216=AXIS2_PLACEMENT_3D('',#1807,#1467,#1468);
#1217=AXIS2_PLACEMENT_3D('',#1814,#1474,#1475);
#1218=AXIS2_PLACEMENT_3D('',#1821,#1479,#1480);
#1219=AXIS2_PLACEMENT_3D('',#1824,#1482,#1483);
#1220=AXIS2_PLACEMENT_3D('',#1826,#1484,#1485);
#1221=AXIS2_PLACEMENT_3D('',#1828,#1486,#1487);
#1222=AXIS2_PLACEMENT_3D('',#1830,#1488,#1489);
#1223=AXIS2_PLACEMENT_3D('',#1832,#1490,#1491);
#1224=AXIS2_PLACEMENT_3D('',#1834,#1492,#1493);
#1225=AXIS2_PLACEMENT_3D('',#1835,#1494,#1495);
#1226=AXIS2_PLACEMENT_3D('',#1837,#1496,#1497);
#1227=AXIS2_PLACEMENT_3D('',#1839,#1498,#1499);
#1228=AXIS2_PLACEMENT_3D('',#1846,#1503,#1504);
#1229=AXIS2_PLACEMENT_3D('',#1848,#1505,#1506);
#1230=AXIS2_PLACEMENT_3D('',#1850,#1507,#1508);
#1231=AXIS2_PLACEMENT_3D('',#1852,#1509,#1510);
#1232=AXIS2_PLACEMENT_3D('',#1854,#1511,#1512);
#1233=AXIS2_PLACEMENT_3D('',#1856,#1513,#1514);
#1234=AXIS2_PLACEMENT_3D('',#1857,#1515,#1516);
#1235=AXIS2_PLACEMENT_3D('',#1860,#1518,#1519);
#1236=AXIS2_PLACEMENT_3D('',#1861,#1520,#1521);
#1237=AXIS2_PLACEMENT_3D('',#1863,#1523,#1524);
#1238=AXIS2_PLACEMENT_3D('',#1866,#1526,#1527);
#1239=AXIS2_PLACEMENT_3D('',#1867,#1528,#1529);
#1240=AXIS2_PLACEMENT_3D('',#1869,#1531,#1532);
#1241=AXIS2_PLACEMENT_3D('',#1872,#1534,#1535);
#1242=AXIS2_PLACEMENT_3D('',#1873,#1536,#1537);
#1243=AXIS2_PLACEMENT_3D('',#1875,#1539,#1540);
#1244=AXIS2_PLACEMENT_3D('',#1878,#1542,#1543);
#1245=AXIS2_PLACEMENT_3D('',#1879,#1544,#1545);
#1246=AXIS2_PLACEMENT_3D('',#1881,#1547,#1548);
#1247=AXIS2_PLACEMENT_3D('',#1883,#1550,#1551);
#1248=AXIS2_PLACEMENT_3D('',#1885,#1553,#1554);
#1249=AXIS2_PLACEMENT_3D('',#1887,#1556,#1557);
#1250=AXIS2_PLACEMENT_3D('',#1889,#1559,#1560);
#1251=AXIS2_PLACEMENT_3D('',#1890,#1561,#1562);
#1252=AXIS2_PLACEMENT_3D('',#1893,#1564,#1565);
#1253=AXIS2_PLACEMENT_3D('',#1894,#1566,#1567);
#1254=AXIS2_PLACEMENT_3D('',#1896,#1569,#1570);
#1255=AXIS2_PLACEMENT_3D('',#1899,#1572,#1573);
#1256=AXIS2_PLACEMENT_3D('',#1900,#1574,#1575);
#1257=AXIS2_PLACEMENT_3D('',#1902,#1577,#1578);
#1258=AXIS2_PLACEMENT_3D('',#1904,#1580,#1581);
#1259=AXIS2_PLACEMENT_3D('',#1906,#1583,#1584);
#1260=AXIS2_PLACEMENT_3D('',#1907,#1585,#1586);
#1261=AXIS2_PLACEMENT_3D('',#1910,#1589,#1590);
#1262=AXIS2_PLACEMENT_3D('',#1911,#1591,#1592);
#1263=AXIS2_PLACEMENT_3D('',#1912,#1593,#1594);
#1264=AXIS2_PLACEMENT_3D('',#1914,#1596,#1597);
#1265=AXIS2_PLACEMENT_3D('',#1916,#1599,#1600);
#1266=DIRECTION('axis',(0.,0.,1.));
#1267=DIRECTION('refdir',(1.,0.,0.));
#1268=DIRECTION('center_axis',(0.,0.707106781186548,-0.707106781186547));
#1269=DIRECTION('ref_axis',(-1.,0.,0.));
#1270=DIRECTION('',(0.,0.707106781186547,0.707106781186548));
#1271=DIRECTION('',(1.,0.,0.));
#1272=DIRECTION('',(0.,-0.707106781186547,-0.707106781186548));
#1273=DIRECTION('',(-1.,0.,0.));
#1274=DIRECTION('center_axis',(0.,0.,-1.));
#1275=DIRECTION('ref_axis',(1.,0.,0.));
#1276=DIRECTION('',(0.,-1.,0.));
#1277=DIRECTION('',(1.,0.,0.));
#1278=DIRECTION('',(0.,1.,0.));
#1279=DIRECTION('center_axis',(0.,0.707106781186548,-0.707106781186547));
#1280=DIRECTION('ref_axis',(-1.,0.,0.));
#1281=DIRECTION('',(0.,0.707106781186547,0.707106781186548));
#1282=DIRECTION('',(1.,0.,0.));
#1283=DIRECTION('',(0.,-0.707106781186547,-0.707106781186548));
#1284=DIRECTION('',(-1.,0.,0.));
#1285=DIRECTION('center_axis',(0.,0.,-1.));
#1286=DIRECTION('ref_axis',(1.,0.,0.));
#1287=DIRECTION('',(0.,-1.,0.));
#1288=DIRECTION('',(-1.,0.,0.));
#1289=DIRECTION('',(0.,1.,0.));
#1290=DIRECTION('center_axis',(0.,0.707106781186548,-0.707106781186547));
#1291=DIRECTION('ref_axis',(-1.,0.,0.));
#1292=DIRECTION('',(0.,0.707106781186547,0.707106781186548));
#1293=DIRECTION('',(1.,0.,0.));
#1294=DIRECTION('',(0.,-0.707106781186547,-0.707106781186548));
#1295=DIRECTION('',(-1.,0.,0.));
#1296=DIRECTION('center_axis',(0.,0.,-1.));
#1297=DIRECTION('ref_axis',(1.,0.,0.));
#1298=DIRECTION('',(0.,-1.,0.));
#1299=DIRECTION('',(1.,0.,0.));
#1300=DIRECTION('',(0.,1.,0.));
#1301=DIRECTION('center_axis',(0.,0.,-1.));
#1302=DIRECTION('ref_axis',(1.,2.67765577238506E-17,0.));
#1303=DIRECTION('',(1.,0.,0.));
#1304=DIRECTION('',(0.,-1.,0.));
#1305=DIRECTION('',(1.,0.,0.));
#1306=DIRECTION('',(0.,1.,0.));
#1307=DIRECTION('',(1.,0.,0.));
#1308=DIRECTION('',(0.,-1.,0.));
#1309=DIRECTION('',(-1.,0.,0.));
#1310=DIRECTION('',(0.,1.,0.));
#1311=DIRECTION('',(1.,0.,0.));
#1312=DIRECTION('',(0.,-1.,0.));
#1313=DIRECTION('',(-1.,0.,0.));
#1314=DIRECTION('',(0.,-1.,0.));
#1315=DIRECTION('',(1.,0.,0.));
#1316=DIRECTION('',(0.,-1.,0.));
#1317=DIRECTION('',(-1.,0.,0.));
#1318=DIRECTION('',(0.,1.,0.));
#1319=DIRECTION('center_axis',(0.,1.,0.));
#1320=DIRECTION('ref_axis',(-1.,0.,0.));
#1321=DIRECTION('center_axis',(0.,1.,0.));
#1322=DIRECTION('ref_axis',(-1.,0.,0.));
#1323=DIRECTION('',(-0.707106781186554,-0.707106781186541,8.65956056235501E-17));
#1324=DIRECTION('center_axis',(0.,-1.,0.));
#1325=DIRECTION('ref_axis',(-1.,0.,0.));
#1326=DIRECTION('center_axis',(0.,1.,0.));
#1327=DIRECTION('ref_axis',(-1.,0.,0.));
#1328=DIRECTION('',(1.1638200027128E-14,0.,1.));
#1329=DIRECTION('center_axis',(0.,-1.,0.));
#1330=DIRECTION('ref_axis',(-1.,0.,0.));
#1331=DIRECTION('',(-1.1638200027128E-14,0.,-1.));
#1332=DIRECTION('center_axis',(0.,-1.,0.));
#1333=DIRECTION('ref_axis',(-1.,0.,0.));
#1334=DIRECTION('center_axis',(0.,1.,0.));
#1335=DIRECTION('ref_axis',(-1.,0.,0.));
#1336=DIRECTION('center_axis',(0.,1.,0.));
#1337=DIRECTION('ref_axis',(-1.,0.,0.));
#1338=DIRECTION('',(0.,-1.,0.));
#1339=DIRECTION('center_axis',(0.,1.,0.));
#1340=DIRECTION('ref_axis',(-1.,0.,0.));
#1341=DIRECTION('center_axis',(0.,1.,0.));
#1342=DIRECTION('ref_axis',(-1.,0.,0.));
#1343=DIRECTION('',(-0.707106781186554,-0.707106781186541,8.65956056235501E-17));
#1344=DIRECTION('center_axis',(0.,-1.,0.));
#1345=DIRECTION('ref_axis',(-1.,0.,0.));
#1346=DIRECTION('center_axis',(0.,1.,0.));
#1347=DIRECTION('ref_axis',(-1.,0.,0.));
#1348=DIRECTION('',(0.,-1.,0.));
#1349=DIRECTION('center_axis',(0.,1.,0.));
#1350=DIRECTION('ref_axis',(-1.,0.,0.));
#1351=DIRECTION('center_axis',(0.,-1.,0.));
#1352=DIRECTION('ref_axis',(-1.,0.,0.));
#1353=DIRECTION('center_axis',(0.,-1.,0.));
#1354=DIRECTION('ref_axis',(-1.,0.,0.));
#1355=DIRECTION('',(0.707106781186554,-0.707106781186541,-8.65956056235501E-17));
#1356=DIRECTION('center_axis',(0.,1.,0.));
#1357=DIRECTION('ref_axis',(-1.,0.,0.));
#1358=DIRECTION('center_axis',(0.,1.,0.));
#1359=DIRECTION('ref_axis',(-1.,0.,0.));
#1360=DIRECTION('center_axis',(0.,1.,0.));
#1361=DIRECTION('ref_axis',(-1.,0.,0.));
#1362=DIRECTION('center_axis',(0.,1.,0.));
#1363=DIRECTION('ref_axis',(-1.,0.,0.));
#1364=DIRECTION('',(0.,-1.,0.));
#1365=DIRECTION('center_axis',(0.,-1.,0.));
#1366=DIRECTION('ref_axis',(-1.,0.,0.));
#1367=DIRECTION('center_axis',(0.,-1.,0.));
#1368=DIRECTION('ref_axis',(-1.,0.,0.));
#1369=DIRECTION('center_axis',(0.,-1.,0.));
#1370=DIRECTION('ref_axis',(-1.,0.,0.));
#1371=DIRECTION('',(0.707106781186554,-0.707106781186541,-8.65956056235501E-17));
#1372=DIRECTION('center_axis',(0.,1.,0.));
#1373=DIRECTION('ref_axis',(-1.,0.,0.));
#1374=DIRECTION('center_axis',(0.,1.,0.));
#1375=DIRECTION('ref_axis',(-1.,0.,0.));
#1376=DIRECTION('center_axis',(0.,1.,0.));
#1377=DIRECTION('ref_axis',(-1.,0.,0.));
#1378=DIRECTION('center_axis',(0.,1.,0.));
#1379=DIRECTION('ref_axis',(-1.,0.,0.));
#1380=DIRECTION('',(0.,-1.,0.));
#1381=DIRECTION('center_axis',(0.,-1.,0.));
#1382=DIRECTION('ref_axis',(-1.,0.,0.));
#1383=DIRECTION('center_axis',(0.,1.,0.));
#1384=DIRECTION('ref_axis',(-1.,0.,0.));
#1385=DIRECTION('',(-0.707106781186554,-0.707106781186541,8.65956056235501E-17));
#1386=DIRECTION('center_axis',(0.,-1.,0.));
#1387=DIRECTION('ref_axis',(-1.,0.,0.));
#1388=DIRECTION('center_axis',(0.,1.,0.));
#1389=DIRECTION('ref_axis',(-1.,0.,0.));
#1390=DIRECTION('',(0.,-1.,0.));
#1391=DIRECTION('center_axis',(0.,1.,0.));
#1392=DIRECTION('ref_axis',(-1.,0.,0.));
#1393=DIRECTION('center_axis',(0.,1.,0.));
#1394=DIRECTION('ref_axis',(-1.,0.,0.));
#1395=DIRECTION('',(-0.707106781186554,-0.707106781186541,8.65956056235501E-17));
#1396=DIRECTION('center_axis',(0.,-1.,0.));
#1397=DIRECTION('ref_axis',(-1.,0.,0.));
#1398=DIRECTION('center_axis',(0.,1.,0.));
#1399=DIRECTION('ref_axis',(-1.,0.,0.));
#1400=DIRECTION('',(0.,-1.,0.));
#1401=DIRECTION('center_axis',(0.,1.,0.));
#1402=DIRECTION('ref_axis',(-1.,0.,0.));
#1403=DIRECTION('center_axis',(0.,-1.,0.));
#1404=DIRECTION('ref_axis',(-1.,0.,0.));
#1405=DIRECTION('center_axis',(0.,1.,0.));
#1406=DIRECTION('ref_axis',(-1.,0.,0.));
#1407=DIRECTION('',(-0.707106781186554,0.707106781186541,-8.65956056235501E-17));
#1408=DIRECTION('center_axis',(0.,-1.,0.));
#1409=DIRECTION('ref_axis',(-1.,0.,0.));
#1410=DIRECTION('center_axis',(0.,1.,0.));
#1411=DIRECTION('ref_axis',(-1.,0.,0.));
#1412=DIRECTION('',(-0.707106781186554,0.707106781186541,-8.65956056235501E-17));
#1413=DIRECTION('center_axis',(0.707106781186516,0.707106781186579,-8.22945015998734E-15));
#1414=DIRECTION('ref_axis',(-1.1638200027128E-14,0.,-1.));
#1415=DIRECTION('',(0.707106781186579,-0.707106781186516,-1.25607396694697E-14));
#1416=DIRECTION('',(-1.1638200027128E-14,0.,-1.));
#1417=DIRECTION('',(-0.707106781186579,0.707106781186516,1.25607396694697E-14));
#1418=DIRECTION('',(1.1638200027128E-14,0.,1.));
#1419=DIRECTION('center_axis',(0.,-1.,0.));
#1420=DIRECTION('ref_axis',(-1.,0.,0.));
#1421=DIRECTION('',(-0.707106781186554,-0.707106781186541,0.));
#1422=DIRECTION('center_axis',(0.,1.,0.));
#1423=DIRECTION('ref_axis',(-1.,0.,0.));
#1424=DIRECTION('center_axis',(0.,-1.,0.));
#1425=DIRECTION('ref_axis',(-1.,0.,0.));
#1426=DIRECTION('center_axis',(-0.707106781186566,0.707106781186529,8.22945015998792E-15));
#1427=DIRECTION('ref_axis',(1.1638200027128E-14,0.,1.));
#1428=DIRECTION('',(-0.707106781186529,-0.707106781186566,6.28036983473529E-15));
#1429=DIRECTION('',(1.1638200027128E-14,0.,1.));
#1430=DIRECTION('',(-1.1638200027128E-14,0.,-1.));
#1431=DIRECTION('center_axis',(0.,-1.,0.));
#1432=DIRECTION('ref_axis',(-6.12323399573677E-17,0.,-1.));
#1433=DIRECTION('center_axis',(0.,1.,0.));
#1434=DIRECTION('ref_axis',(-1.,0.,0.));
#1435=DIRECTION('center_axis',(0.,-1.,0.));
#1436=DIRECTION('ref_axis',(-1.,0.,0.));
#1437=DIRECTION('center_axis',(0.,1.,0.));
#1438=DIRECTION('ref_axis',(-1.,0.,0.));
#1439=DIRECTION('',(0.,1.,0.));
#1440=DIRECTION('center_axis',(0.,1.,0.));
#1441=DIRECTION('ref_axis',(-1.,0.,0.));
#1442=DIRECTION('',(0.,1.,0.));
#1443=DIRECTION('center_axis',(1.,0.,-1.1638200027128E-14));
#1444=DIRECTION('ref_axis',(-1.1638200027128E-14,0.,-1.));
#1445=DIRECTION('',(0.,1.,0.));
#1446=DIRECTION('',(-1.1638200027128E-14,0.,-1.));
#1447=DIRECTION('center_axis',(0.707106781186566,0.707106781186529,-8.22945015998792E-15));
#1448=DIRECTION('ref_axis',(-1.1638200027128E-14,0.,-1.));
#1449=DIRECTION('',(-0.707106781186529,0.707106781186566,1.25607396694706E-14));
#1450=DIRECTION('',(0.707106781186529,-0.707106781186566,-1.25607396694706E-14));
#1451=DIRECTION('center_axis',(0.,-1.,0.));
#1452=DIRECTION('ref_axis',(7.45055921940942E-9,0.,-1.));
#1453=DIRECTION('',(0.707106781186553,0.70710678118654,-5.26833879284467E-8));
#1454=DIRECTION('center_axis',(0.,1.,0.));
#1455=DIRECTION('ref_axis',(-1.,0.,0.));
#1456=DIRECTION('center_axis',(-0.707106781186516,0.707106781186579,8.22945015998734E-15));
#1457=DIRECTION('ref_axis',(1.1638200027128E-14,0.,1.));
#1458=DIRECTION('',(0.707106781186579,0.707106781186516,-1.25607396694697E-14));
#1459=DIRECTION('',(1.1638200027128E-14,0.,1.));
#1460=DIRECTION('center_axis',(0.,-1.,0.));
#1461=DIRECTION('ref_axis',(-1.,0.,0.));
#1462=DIRECTION('center_axis',(0.,1.,0.));
#1463=DIRECTION('ref_axis',(1.83697019872103E-16,0.,-1.));
#1464=DIRECTION('',(0.,1.,0.));
#1465=DIRECTION('center_axis',(-1.,0.,1.1638200027128E-14));
#1466=DIRECTION('ref_axis',(1.1638200027128E-14,0.,1.));
#1467=DIRECTION('center_axis',(0.,1.,0.));
#1468=DIRECTION('ref_axis',(0.,0.,1.));
#1469=DIRECTION('',(0.,0.,1.));
#1470=DIRECTION('',(0.,0.,-1.));
#1471=DIRECTION('',(0.,0.,1.));
#1472=DIRECTION('',(0.,0.,-1.));
#1473=DIRECTION('',(0.,0.,1.));
#1474=DIRECTION('center_axis',(0.,1.,0.));
#1475=DIRECTION('ref_axis',(0.,0.,1.));
#1476=DIRECTION('',(0.,0.,1.));
#1477=DIRECTION('',(1.,0.,0.));
#1478=DIRECTION('',(-1.57399754199663E-16,0.,-1.));
#1479=DIRECTION('center_axis',(0.,1.,0.));
#1480=DIRECTION('ref_axis',(-1.,0.,0.));
#1481=DIRECTION('',(0.,0.,-1.));
#1482=DIRECTION('center_axis',(0.,-1.,0.));
#1483=DIRECTION('ref_axis',(-1.,0.,0.));
#1484=DIRECTION('center_axis',(0.,-1.,0.));
#1485=DIRECTION('ref_axis',(-1.,0.,0.));
#1486=DIRECTION('center_axis',(0.,-1.,0.));
#1487=DIRECTION('ref_axis',(-1.,0.,0.));
#1488=DIRECTION('center_axis',(0.,-1.,0.));
#1489=DIRECTION('ref_axis',(-1.,0.,0.));
#1490=DIRECTION('center_axis',(0.,-1.,0.));
#1491=DIRECTION('ref_axis',(-1.,0.,0.));
#1492=DIRECTION('center_axis',(0.,-1.,0.));
#1493=DIRECTION('ref_axis',(-1.,0.,0.));
#1494=DIRECTION('center_axis',(0.,-1.,0.));
#1495=DIRECTION('ref_axis',(1.,0.,0.));
#1496=DIRECTION('center_axis',(0.,-1.,0.));
#1497=DIRECTION('ref_axis',(0.,0.,1.));
#1498=DIRECTION('center_axis',(0.,-1.,0.));
#1499=DIRECTION('ref_axis',(-1.,0.,0.));
#1500=DIRECTION('',(1.57399754199663E-16,0.,1.));
#1501=DIRECTION('',(-1.,0.,0.));
#1502=DIRECTION('',(0.,0.,-1.));
#1503=DIRECTION('center_axis',(0.,-1.,0.));
#1504=DIRECTION('ref_axis',(-1.,0.,0.));
#1505=DIRECTION('center_axis',(0.,-1.,0.));
#1506=DIRECTION('ref_axis',(-1.,0.,0.));
#1507=DIRECTION('center_axis',(0.,-1.,0.));
#1508=DIRECTION('ref_axis',(-1.,0.,0.));
#1509=DIRECTION('center_axis',(0.,-1.,0.));
#1510=DIRECTION('ref_axis',(-1.,0.,0.));
#1511=DIRECTION('center_axis',(0.,-1.,0.));
#1512=DIRECTION('ref_axis',(-1.,0.,0.));
#1513=DIRECTION('center_axis',(0.,-1.,0.));
#1514=DIRECTION('ref_axis',(-1.,0.,0.));
#1515=DIRECTION('center_axis',(0.,-1.,0.));
#1516=DIRECTION('ref_axis',(-1.,0.,0.));
#1517=DIRECTION('',(-0.707106781186548,0.707106781186547,-8.65956056235493E-17));
#1518=DIRECTION('center_axis',(0.,1.,0.));
#1519=DIRECTION('ref_axis',(-1.,0.,0.));
#1520=DIRECTION('center_axis',(0.,-1.,0.));
#1521=DIRECTION('ref_axis',(-1.,0.,0.));
#1522=DIRECTION('',(0.,-1.,0.));
#1523=DIRECTION('center_axis',(0.,-1.,0.));
#1524=DIRECTION('ref_axis',(-1.,0.,0.));
#1525=DIRECTION('',(-0.707106781186548,0.707106781186548,-8.65956056235494E-17));
#1526=DIRECTION('center_axis',(0.,1.,0.));
#1527=DIRECTION('ref_axis',(-1.,0.,0.));
#1528=DIRECTION('center_axis',(0.,-1.,0.));
#1529=DIRECTION('ref_axis',(-1.,0.,0.));
#1530=DIRECTION('',(0.,-1.,0.));
#1531=DIRECTION('center_axis',(0.,-1.,0.));
#1532=DIRECTION('ref_axis',(-1.,0.,0.));
#1533=DIRECTION('',(-0.707106781186548,0.707106781186547,-8.65956056235494E-17));
#1534=DIRECTION('center_axis',(0.,1.,0.));
#1535=DIRECTION('ref_axis',(-1.,0.,0.));
#1536=DIRECTION('center_axis',(0.,-1.,0.));
#1537=DIRECTION('ref_axis',(-1.,0.,0.));
#1538=DIRECTION('',(0.,-1.,0.));
#1539=DIRECTION('center_axis',(0.,-1.,0.));
#1540=DIRECTION('ref_axis',(-1.,0.,0.));
#1541=DIRECTION('',(-0.707106781186544,0.707106781186551,-8.65956056235489E-17));
#1542=DIRECTION('center_axis',(0.,1.,0.));
#1543=DIRECTION('ref_axis',(-1.,0.,0.));
#1544=DIRECTION('center_axis',(0.,-1.,0.));
#1545=DIRECTION('ref_axis',(-1.,0.,0.));
#1546=DIRECTION('',(0.,-1.,0.));
#1547=DIRECTION('center_axis',(0.,-1.,0.));
#1548=DIRECTION('ref_axis',(0.,0.,1.));
#1549=DIRECTION('',(0.,-1.,0.));
#1550=DIRECTION('center_axis',(0.,-1.,0.));
#1551=DIRECTION('ref_axis',(-1.,0.,0.));
#1552=DIRECTION('',(0.,1.,0.));
#1553=DIRECTION('center_axis',(1.,0.,0.));
#1554=DIRECTION('ref_axis',(0.,0.,-1.));
#1555=DIRECTION('',(0.,-1.,0.));
#1556=DIRECTION('center_axis',(-1.,0.,1.57399754199663E-16));
#1557=DIRECTION('ref_axis',(1.57399754199663E-16,0.,1.));
#1558=DIRECTION('',(0.,1.,0.));
#1559=DIRECTION('center_axis',(0.,0.,-1.));
#1560=DIRECTION('ref_axis',(-1.,0.,0.));
#1561=DIRECTION('center_axis',(0.,-1.,0.));
#1562=DIRECTION('ref_axis',(-1.,0.,0.));
#1563=DIRECTION('',(-0.707106781186548,0.707106781186547,-8.65956056235494E-17));
#1564=DIRECTION('center_axis',(0.,1.,0.));
#1565=DIRECTION('ref_axis',(-1.,0.,0.));
#1566=DIRECTION('center_axis',(0.,-1.,0.));
#1567=DIRECTION('ref_axis',(-1.,0.,0.));
#1568=DIRECTION('',(0.,-1.,0.));
#1569=DIRECTION('center_axis',(0.,-1.,0.));
#1570=DIRECTION('ref_axis',(-1.,0.,0.));
#1571=DIRECTION('',(-0.707106781186548,0.707106781186548,-8.65956056235494E-17));
#1572=DIRECTION('center_axis',(0.,1.,0.));
#1573=DIRECTION('ref_axis',(-1.,0.,0.));
#1574=DIRECTION('center_axis',(0.,-1.,0.));
#1575=DIRECTION('ref_axis',(-1.,0.,0.));
#1576=DIRECTION('',(0.,-1.,0.));
#1577=DIRECTION('center_axis',(-1.,0.,0.));
#1578=DIRECTION('ref_axis',(0.,0.,-1.));
#1579=DIRECTION('',(0.,-1.65704929048531E-16,1.));
#1580=DIRECTION('center_axis',(1.,0.,0.));
#1581=DIRECTION('ref_axis',(0.,0.,1.));
#1582=DIRECTION('',(0.,1.65704929048531E-16,-1.));
#1583=DIRECTION('center_axis',(-2.41905005910157E-17,-1.,-1.65704929048531E-16));
#1584=DIRECTION('ref_axis',(0.,1.65704929048531E-16,-1.));
#1585=DIRECTION('center_axis',(0.,1.,0.));
#1586=DIRECTION('ref_axis',(0.,0.,1.));
#1587=DIRECTION('',(0.,0.,-1.));
#1588=DIRECTION('',(0.,0.,1.));
#1589=DIRECTION('center_axis',(-1.,0.,0.));
#1590=DIRECTION('ref_axis',(0.,0.,-1.));
#1591=DIRECTION('center_axis',(1.,0.,0.));
#1592=DIRECTION('ref_axis',(0.,0.,1.));
#1593=DIRECTION('center_axis',(-1.,0.,0.));
#1594=DIRECTION('ref_axis',(0.,0.,-1.));
#1595=DIRECTION('',(0.,-1.65704929048531E-16,1.));
#1596=DIRECTION('center_axis',(1.,0.,0.));
#1597=DIRECTION('ref_axis',(0.,0.,1.));
#1598=DIRECTION('',(0.,1.65704929048531E-16,-1.));
#1599=DIRECTION('center_axis',(-2.0331893134789E-17,-1.,-1.65704929048531E-16));
#1600=DIRECTION('ref_axis',(0.,1.65704929048531E-16,-1.));
#1601=CARTESIAN_POINT('',(0.,0.,0.));
#1602=CARTESIAN_POINT('Origin',(269.575000596047,30.3537032031073,241.05));
#1603=CARTESIAN_POINT('',(234.35,28.8537032031073,239.55));
#1604=CARTESIAN_POINT('',(234.35,31.8537032031074,242.55));
#1605=CARTESIAN_POINT('',(234.35,32.4652774023305,243.161574199223));
#1606=CARTESIAN_POINT('',(247.65,31.8537032031074,242.55));
#1607=CARTESIAN_POINT('',(269.575000596047,31.8537032031074,242.55));
#1608=CARTESIAN_POINT('',(247.65,28.8537032031073,239.55));
#1609=CARTESIAN_POINT('',(247.65,31.9652774023305,242.661574199223));
#1610=CARTESIAN_POINT('',(269.575000596047,28.8537032031073,239.55));
#1611=CARTESIAN_POINT('Origin',(234.15,35.3,242.55));
#1612=CARTESIAN_POINT('',(234.35,35.3,242.55));
#1613=CARTESIAN_POINT('',(234.35,35.3,242.55));
#1614=CARTESIAN_POINT('',(247.65,35.3,242.55));
#1615=CARTESIAN_POINT('',(276.425033744872,35.3,242.55));
#1616=CARTESIAN_POINT('',(247.65,35.3,242.55));
#1617=CARTESIAN_POINT('Origin',(278.625000596047,30.3537032031073,241.05));
#1618=CARTESIAN_POINT('',(252.45,28.8537032031073,239.55));
#1619=CARTESIAN_POINT('',(252.45,31.8537032031074,242.55));
#1620=CARTESIAN_POINT('',(252.45,32.5152774023305,243.211574199223));
#1621=CARTESIAN_POINT('',(265.55,31.8537032031074,242.55));
#1622=CARTESIAN_POINT('',(278.625000596047,31.8537032031074,242.55));
#1623=CARTESIAN_POINT('',(265.55,28.8537032031073,239.55));
#1624=CARTESIAN_POINT('',(265.55,32.0152774023305,242.711574199223));
#1625=CARTESIAN_POINT('',(278.625000596047,28.8537032031073,239.55));
#1626=CARTESIAN_POINT('Origin',(252.25,35.5,242.55));
#1627=CARTESIAN_POINT('',(252.45,36.5,242.55));
#1628=CARTESIAN_POINT('',(252.45,35.5,242.55));
#1629=CARTESIAN_POINT('',(265.55,36.5,242.55));
#1630=CARTESIAN_POINT('',(285.375033744872,36.5,242.55));
#1631=CARTESIAN_POINT('',(265.55,35.5,242.55));
#1632=CARTESIAN_POINT('Origin',(287.300000596047,30.3537032031073,241.05));
#1633=CARTESIAN_POINT('',(269.8,28.8537032031073,239.55));
#1634=CARTESIAN_POINT('',(269.8,31.8537032031074,242.55));
#1635=CARTESIAN_POINT('',(269.8,32.4700374589507,243.166334255843));
#1636=CARTESIAN_POINT('',(285.7,31.8537032031074,242.55));
#1637=CARTESIAN_POINT('',(287.300000596047,31.8537032031074,242.55));
#1638=CARTESIAN_POINT('',(285.7,28.8537032031073,239.55));
#1639=CARTESIAN_POINT('',(285.7,31.9700374589507,242.666334255843));
#1640=CARTESIAN_POINT('',(287.300000596047,28.8537032031073,239.55));
#1641=CARTESIAN_POINT('Origin',(269.6,35.3190402264807,242.55));
#1642=CARTESIAN_POINT('',(269.8,35.3190402264807,242.55));
#1643=CARTESIAN_POINT('',(269.8,35.3190402264807,242.55));
#1644=CARTESIAN_POINT('',(285.7,35.3190402264807,242.55));
#1645=CARTESIAN_POINT('',(295.450033744872,35.3190402264807,242.55));
#1646=CARTESIAN_POINT('',(285.7,35.3190402264807,242.55));
#1647=CARTESIAN_POINT('Origin',(222.075067489743,28.8537032031073,244.55));
#1648=CARTESIAN_POINT('',(265.55,28.8537032031073,244.55));
#1649=CARTESIAN_POINT('',(269.8,28.8537032031073,244.55));
#1650=CARTESIAN_POINT('',(263.537534340918,28.8537032031073,244.55));
#1651=CARTESIAN_POINT('',(265.55,36.5,244.55));
#1652=CARTESIAN_POINT('',(265.55,35.5,244.55));
#1653=CARTESIAN_POINT('',(252.45,36.5,244.55));
#1654=CARTESIAN_POINT('',(285.375033744872,36.5,244.55));
#1655=CARTESIAN_POINT('',(252.45,28.8537032031073,244.55));
#1656=CARTESIAN_POINT('',(252.45,35.5,244.55));
#1657=CARTESIAN_POINT('',(247.65,28.8537032031073,244.55));
#1658=CARTESIAN_POINT('',(263.537534340918,28.8537032031073,244.55));
#1659=CARTESIAN_POINT('',(247.65,35.3,244.55));
#1660=CARTESIAN_POINT('',(247.65,35.3,244.55));
#1661=CARTESIAN_POINT('',(234.35,35.3,244.55));
#1662=CARTESIAN_POINT('',(276.425033744872,35.3,244.55));
#1663=CARTESIAN_POINT('',(234.35,28.8537032031073,244.55));
#1664=CARTESIAN_POINT('',(234.35,35.3,244.55));
#1665=CARTESIAN_POINT('',(222.075067489743,28.8537032031073,244.55));
#1666=CARTESIAN_POINT('',(263.537534340918,28.8537032031073,244.55));
#1667=CARTESIAN_POINT('',(222.075067489743,27.0537032031073,244.55));
#1668=CARTESIAN_POINT('',(222.075067489743,28.8537032031073,244.55));
#1669=CARTESIAN_POINT('',(387.925067489743,27.0537032031073,244.55));
#1670=CARTESIAN_POINT('',(263.537534340918,27.0537032031073,244.55));
#1671=CARTESIAN_POINT('',(387.925067489743,28.8537032031073,244.55));
#1672=CARTESIAN_POINT('',(387.925067489743,28.8537032031073,244.55));
#1673=CARTESIAN_POINT('',(285.7,28.8537032031073,244.55));
#1674=CARTESIAN_POINT('',(263.537534340918,28.8537032031073,244.55));
#1675=CARTESIAN_POINT('',(285.7,35.3190402264807,244.55));
#1676=CARTESIAN_POINT('',(285.7,35.3190402264807,244.55));
#1677=CARTESIAN_POINT('',(269.8,35.3190402264807,244.55));
#1678=CARTESIAN_POINT('',(295.450033744872,35.3190402264807,244.55));
#1679=CARTESIAN_POINT('',(269.8,35.3190402264807,244.55));
#1680=CARTESIAN_POINT('Origin',(235.5,33.6037032031074,218.000000000001));
#1681=CARTESIAN_POINT('',(237.6,33.8537032031074,218.000000000001));
#1682=CARTESIAN_POINT('Origin',(235.5,33.8537032031074,218.000000000001));
#1683=CARTESIAN_POINT('',(237.1,33.3537032031074,218.000000000001));
#1684=CARTESIAN_POINT('',(237.35,33.6037032031074,218.000000000001));
#1685=CARTESIAN_POINT('Origin',(235.5,33.3537032031074,218.000000000001));
#1686=CARTESIAN_POINT('Origin',(235.5,33.8537032031074,189.000000000001));
#1687=CARTESIAN_POINT('',(237.999999999999,33.8537032031074,160.000000223517));
#1688=CARTESIAN_POINT('',(238.,33.8537032031074,218.000000000001));
#1689=CARTESIAN_POINT('',(238.,33.8537032031074,203.500000000001));
#1690=CARTESIAN_POINT('',(232.999999999999,33.8537032031074,160.000000186265));
#1691=CARTESIAN_POINT('Origin',(235.499999999999,33.8537032031074,160.000000000001));
#1692=CARTESIAN_POINT('',(233.,33.8537032031074,218.000000000001));
#1693=CARTESIAN_POINT('',(233.,33.8537032031074,174.500000111759));
#1694=CARTESIAN_POINT('Origin',(235.5,33.8537032031074,218.000000000001));
#1695=CARTESIAN_POINT('',(237.599999999999,33.8537032031074,160.000000000001));
#1696=CARTESIAN_POINT('Origin',(235.499999999999,33.8537032031074,160.000000000001));
#1697=CARTESIAN_POINT('Origin',(235.5,28.8537032031073,218.000000000001));
#1698=CARTESIAN_POINT('',(237.1,27.0537032031073,218.000000000001));
#1699=CARTESIAN_POINT('',(237.1,28.8537032031073,218.000000000001));
#1700=CARTESIAN_POINT('Origin',(235.5,27.0537032031073,218.000000000001));
#1701=CARTESIAN_POINT('Origin',(235.499999999999,33.6037032031074,160.000000000001));
#1702=CARTESIAN_POINT('',(237.099999999999,33.3537032031074,160.000000000001));
#1703=CARTESIAN_POINT('',(237.349999999999,33.6037032031074,160.000000000001));
#1704=CARTESIAN_POINT('Origin',(235.499999999999,33.3537032031074,160.000000000001));
#1705=CARTESIAN_POINT('Origin',(235.499999999999,28.8537032031073,160.000000000001));
#1706=CARTESIAN_POINT('',(237.099999999999,27.0537032031073,160.000000000001));
#1707=CARTESIAN_POINT('',(237.099999999999,28.8537032031073,160.000000000001));
#1708=CARTESIAN_POINT('Origin',(235.499999999999,27.0537032031073,160.000000000001));
#1709=CARTESIAN_POINT('Origin',(284.499999999999,33.6037032031074,160.));
#1710=CARTESIAN_POINT('',(286.999999999999,33.8537032031074,160.));
#1711=CARTESIAN_POINT('Origin',(284.499999999999,33.8537032031074,160.));
#1712=CARTESIAN_POINT('',(287.499999999999,33.3537032031074,160.));
#1713=CARTESIAN_POINT('',(287.249999999999,33.6037032031074,160.));
#1714=CARTESIAN_POINT('Origin',(284.499999999999,33.3537032031074,160.));
#1715=CARTESIAN_POINT('Origin',(284.499999999999,33.8537032031074,160.));
#1716=CARTESIAN_POINT('',(286.599999999999,33.8537032031074,160.));
#1717=CARTESIAN_POINT('Origin',(284.499999999999,33.8537032031074,160.));
#1718=CARTESIAN_POINT('Origin',(284.499999999999,28.8537032031073,160.));
#1719=CARTESIAN_POINT('',(287.499999999999,29.3537032031073,160.));
#1720=CARTESIAN_POINT('',(287.499999999999,28.8537032031073,160.));
#1721=CARTESIAN_POINT('Origin',(284.499999999999,29.3537032031073,160.));
#1722=CARTESIAN_POINT('Origin',(284.5,33.6037032031074,218.));
#1723=CARTESIAN_POINT('',(287.,33.8537032031074,218.));
#1724=CARTESIAN_POINT('Origin',(284.5,33.8537032031074,218.));
#1725=CARTESIAN_POINT('',(287.5,33.3537032031074,218.));
#1726=CARTESIAN_POINT('',(287.25,33.6037032031074,218.));
#1727=CARTESIAN_POINT('Origin',(284.5,33.3537032031074,218.));
#1728=CARTESIAN_POINT('Origin',(284.5,33.8537032031074,218.));
#1729=CARTESIAN_POINT('',(286.6,33.8537032031074,218.));
#1730=CARTESIAN_POINT('Origin',(284.5,33.8537032031074,218.));
#1731=CARTESIAN_POINT('Origin',(284.5,28.8537032031073,218.));
#1732=CARTESIAN_POINT('',(287.5,29.3537032031073,218.));
#1733=CARTESIAN_POINT('',(287.5,28.8537032031073,218.));
#1734=CARTESIAN_POINT('Origin',(284.5,29.3537032031073,218.));
#1735=CARTESIAN_POINT('Origin',(284.499999999999,33.6037032031074,160.));
#1736=CARTESIAN_POINT('',(286.099999999999,33.3537032031074,160.));
#1737=CARTESIAN_POINT('',(286.349999999999,33.6037032031074,160.));
#1738=CARTESIAN_POINT('Origin',(284.499999999999,33.3537032031074,160.));
#1739=CARTESIAN_POINT('Origin',(284.499999999999,28.8537032031073,160.));
#1740=CARTESIAN_POINT('',(286.099999999999,27.0537032031073,160.));
#1741=CARTESIAN_POINT('',(286.099999999999,28.8537032031073,160.));
#1742=CARTESIAN_POINT('Origin',(284.499999999999,27.0537032031073,160.));
#1743=CARTESIAN_POINT('Origin',(284.5,33.6037032031074,218.));
#1744=CARTESIAN_POINT('',(286.1,33.3537032031074,218.));
#1745=CARTESIAN_POINT('',(286.35,33.6037032031074,218.));
#1746=CARTESIAN_POINT('Origin',(284.5,33.3537032031074,218.));
#1747=CARTESIAN_POINT('Origin',(284.5,28.8537032031073,218.));
#1748=CARTESIAN_POINT('',(286.1,27.0537032031073,218.));
#1749=CARTESIAN_POINT('',(286.1,28.8537032031073,218.));
#1750=CARTESIAN_POINT('Origin',(284.5,27.0537032031073,218.));
#1751=CARTESIAN_POINT('Origin',(284.499999999999,29.1037032031073,160.));
#1752=CARTESIAN_POINT('',(287.999999999999,28.8537032031073,160.));
#1753=CARTESIAN_POINT('Origin',(284.499999999999,28.8537032031073,160.));
#1754=CARTESIAN_POINT('',(287.749999999999,29.1037032031073,160.));
#1755=CARTESIAN_POINT('Origin',(284.5,29.1037032031073,218.));
#1756=CARTESIAN_POINT('',(288.,28.8537032031073,218.));
#1757=CARTESIAN_POINT('Origin',(284.5,28.8537032031073,218.));
#1758=CARTESIAN_POINT('',(287.75,29.1037032031073,218.));
#1759=CARTESIAN_POINT('Origin',(238.75,29.1037032031073,207.062335796338));
#1760=CARTESIAN_POINT('',(238.5,29.3537032031073,218.000000000001));
#1761=CARTESIAN_POINT('',(239.,28.8537032031073,218.000000000001));
#1762=CARTESIAN_POINT('',(238.5,29.3537032031073,218.000000000001));
#1763=CARTESIAN_POINT('',(238.999999999999,28.8537032031073,160.000000223517));
#1764=CARTESIAN_POINT('',(239.,28.8537032031073,207.062335796338));
#1765=CARTESIAN_POINT('',(238.499999999999,29.3537032031073,160.000000223517));
#1766=CARTESIAN_POINT('',(238.999999999999,28.8537032031073,160.000000223517));
#1767=CARTESIAN_POINT('',(238.5,29.3537032031073,207.062335796338));
#1768=CARTESIAN_POINT('Origin',(235.5,29.1037032031073,218.000000000001));
#1769=CARTESIAN_POINT('',(232.5,29.3537032031073,218.000000000001));
#1770=CARTESIAN_POINT('',(232.,28.8537032031073,218.000000000001));
#1771=CARTESIAN_POINT('',(232.5,29.3537032031073,218.000000000001));
#1772=CARTESIAN_POINT('Origin',(235.5,28.8537032031073,218.000000000001));
#1773=CARTESIAN_POINT('Origin',(235.5,29.3537032031073,218.000000000001));
#1774=CARTESIAN_POINT('Origin',(232.25,29.1037032031073,178.062335908097));
#1775=CARTESIAN_POINT('',(232.499999999999,29.3537032031073,160.000000223517));
#1776=CARTESIAN_POINT('',(231.999999999999,28.8537032031073,160.000000223517));
#1777=CARTESIAN_POINT('',(232.499999999999,29.3537032031073,160.000000223517));
#1778=CARTESIAN_POINT('',(232.,28.8537032031073,178.062335908097));
#1779=CARTESIAN_POINT('',(232.499999999999,29.3537032031073,178.062335908097));
#1780=CARTESIAN_POINT('Origin',(235.499999999999,29.1037032031073,160.000000000001));
#1781=CARTESIAN_POINT('Origin',(235.499999999999,28.8537032031073,160.000000000001));
#1782=CARTESIAN_POINT('Origin',(235.499999999999,29.3537032031073,160.000000000001));
#1783=CARTESIAN_POINT('Origin',(235.5,28.8537032031073,218.000000000001));
#1784=CARTESIAN_POINT('',(238.5,33.3537032031074,218.000000000001));
#1785=CARTESIAN_POINT('',(238.5,28.8537032031073,218.000000000001));
#1786=CARTESIAN_POINT('',(232.5,33.3537032031074,218.000000000001));
#1787=CARTESIAN_POINT('Origin',(235.5,33.3537032031074,218.000000000001));
#1788=CARTESIAN_POINT('',(232.5,28.8537032031073,218.000000000001));
#1789=CARTESIAN_POINT('Origin',(238.5,28.8537032031073,218.000000000001));
#1790=CARTESIAN_POINT('',(238.499999999999,33.3537032031074,160.000000223517));
#1791=CARTESIAN_POINT('',(238.499999999999,28.8537032031073,160.000000223517));
#1792=CARTESIAN_POINT('',(238.5,33.3537032031074,203.500000000001));
#1793=CARTESIAN_POINT('Origin',(238.25,33.6037032031074,203.500000000001));
#1794=CARTESIAN_POINT('',(238.499999999999,33.3537032031074,160.000000223517));
#1795=CARTESIAN_POINT('',(238.,33.8537032031074,218.000000000001));
#1796=CARTESIAN_POINT('Origin',(235.499999999999,33.6037032031074,160.000000000001));
#1797=CARTESIAN_POINT('',(232.499999999999,33.3537032031074,160.000000223517));
#1798=CARTESIAN_POINT('',(232.499999999999,33.3537032031074,160.000000223517));
#1799=CARTESIAN_POINT('Origin',(235.499999999999,33.3537032031074,160.000000000001));
#1800=CARTESIAN_POINT('Origin',(232.749999999999,33.6037032031074,174.500000111759));
#1801=CARTESIAN_POINT('',(232.5,33.3537032031074,218.000000000001));
#1802=CARTESIAN_POINT('',(232.499999999999,33.3537032031074,174.500000111759));
#1803=CARTESIAN_POINT('Origin',(235.5,33.6037032031074,218.000000000001));
#1804=CARTESIAN_POINT('Origin',(235.499999999999,28.8537032031073,160.000000000001));
#1805=CARTESIAN_POINT('',(232.499999999999,28.8537032031073,160.000000223517));
#1806=CARTESIAN_POINT('Origin',(232.499999999999,28.8537032031073,160.000000223517));
#1807=CARTESIAN_POINT('Origin',(305.000001192093,28.8537032031073,196.124671592675));
#1808=CARTESIAN_POINT('',(247.65,28.8537032031073,219.337335796337));
#1809=CARTESIAN_POINT('',(252.45,28.8537032031073,220.337335796337));
#1810=CARTESIAN_POINT('',(265.55,28.8537032031073,219.337335796337));
#1811=CARTESIAN_POINT('',(269.8,28.8537032031073,220.337335796337));
#1812=CARTESIAN_POINT('',(285.7,28.8537032031073,219.337335796337));
#1813=CARTESIAN_POINT('',(393.725067489743,28.8537032031073,241.965361924162));
#1814=CARTESIAN_POINT('Origin',(387.925067489743,28.8537032031073,236.75));
#1815=CARTESIAN_POINT('',(393.725067489743,28.8537032031073,146.95));
#1816=CARTESIAN_POINT('',(393.725067489743,28.8537032031073,220.812007389012));
#1817=CARTESIAN_POINT('',(216.274934894443,28.8537032031073,146.95));
#1818=CARTESIAN_POINT('',(349.462534340918,28.8537032031073,146.95));
#1819=CARTESIAN_POINT('',(216.274934894443,28.8537032031073,241.96521446126));
#1820=CARTESIAN_POINT('',(216.274934894443,28.8537032031073,171.437335796337));
#1821=CARTESIAN_POINT('Origin',(222.075067489743,28.8537032031073,236.75));
#1822=CARTESIAN_POINT('',(234.35,28.8537032031073,220.337335796337));
#1823=CARTESIAN_POINT('',(222.975067489743,28.8537032031073,237.3));
#1824=CARTESIAN_POINT('Origin',(221.325067489743,28.8537032031073,237.3));
#1825=CARTESIAN_POINT('',(224.974934894443,28.8537032031073,154.));
#1826=CARTESIAN_POINT('Origin',(223.324934894443,28.8537032031073,154.));
#1827=CARTESIAN_POINT('',(390.325130523683,28.8537032031073,237.300727535387));
#1828=CARTESIAN_POINT('Origin',(388.675130523683,28.8537032031073,237.300727535387));
#1829=CARTESIAN_POINT('',(388.325067489743,28.8537032031073,154.));
#1830=CARTESIAN_POINT('Origin',(386.675067489743,28.8537032031073,154.));
#1831=CARTESIAN_POINT('',(388.325067489743,28.8537032031073,174.));
#1832=CARTESIAN_POINT('Origin',(386.675067489743,28.8537032031073,174.));
#1833=CARTESIAN_POINT('',(224.974934894443,28.8537032031073,174.));
#1834=CARTESIAN_POINT('Origin',(223.324934894443,28.8537032031073,174.));
#1835=CARTESIAN_POINT('Origin',(305.000001192093,27.0537032031073,196.124671592675));
#1836=CARTESIAN_POINT('',(393.725067489743,27.0537032031073,241.965361924162));
#1837=CARTESIAN_POINT('Origin',(387.925067489743,27.0537032031073,236.75));
#1838=CARTESIAN_POINT('',(216.274934894443,27.0537032031073,241.96521446126));
#1839=CARTESIAN_POINT('Origin',(222.075067489743,27.0537032031073,236.75));
#1840=CARTESIAN_POINT('',(216.274934894443,27.0537032031073,146.95));
#1841=CARTESIAN_POINT('',(216.274934894443,27.0537032031073,171.437335796337));
#1842=CARTESIAN_POINT('',(393.725067489743,27.0537032031073,146.95));
#1843=CARTESIAN_POINT('',(349.462534340918,27.0537032031073,146.95));
#1844=CARTESIAN_POINT('',(393.725067489743,27.0537032031073,220.812007389012));
#1845=CARTESIAN_POINT('',(226.474934894443,27.0537032031073,174.));
#1846=CARTESIAN_POINT('Origin',(223.324934894443,27.0537032031073,174.));
#1847=CARTESIAN_POINT('',(389.825067489743,27.0537032031073,174.));
#1848=CARTESIAN_POINT('Origin',(386.675067489743,27.0537032031073,174.));
#1849=CARTESIAN_POINT('',(226.474934894443,27.0537032031073,154.));
#1850=CARTESIAN_POINT('Origin',(223.324934894443,27.0537032031073,154.));
#1851=CARTESIAN_POINT('',(391.825130523683,27.0537032031073,237.300727535387));
#1852=CARTESIAN_POINT('Origin',(388.675130523683,27.0537032031073,237.300727535387));
#1853=CARTESIAN_POINT('',(389.825067489743,27.0537032031073,154.));
#1854=CARTESIAN_POINT('Origin',(386.675067489743,27.0537032031073,154.));
#1855=CARTESIAN_POINT('',(224.475067489743,27.0537032031073,237.3));
#1856=CARTESIAN_POINT('Origin',(221.325067489743,27.0537032031073,237.3));
#1857=CARTESIAN_POINT('Origin',(221.325067489743,27.8037032031073,237.3));
#1858=CARTESIAN_POINT('',(222.975067489743,28.5537032031073,237.3));
#1859=CARTESIAN_POINT('',(223.725067489743,27.8037032031073,237.3));
#1860=CARTESIAN_POINT('Origin',(221.325067489743,28.5537032031073,237.3));
#1861=CARTESIAN_POINT('Origin',(221.325067489743,28.8537032031073,237.3));
#1862=CARTESIAN_POINT('',(222.975067489743,28.8537032031073,237.3));
#1863=CARTESIAN_POINT('Origin',(223.324934894443,27.8037032031073,154.));
#1864=CARTESIAN_POINT('',(224.974934894443,28.5537032031073,154.));
#1865=CARTESIAN_POINT('',(225.724934894443,27.8037032031073,154.));
#1866=CARTESIAN_POINT('Origin',(223.324934894443,28.5537032031073,154.));
#1867=CARTESIAN_POINT('Origin',(223.324934894443,28.8537032031073,154.));
#1868=CARTESIAN_POINT('',(224.974934894443,28.8537032031073,154.));
#1869=CARTESIAN_POINT('Origin',(386.675067489743,27.8037032031073,154.));
#1870=CARTESIAN_POINT('',(388.325067489743,28.5537032031073,154.));
#1871=CARTESIAN_POINT('',(389.075067489743,27.8037032031073,154.));
#1872=CARTESIAN_POINT('Origin',(386.675067489743,28.5537032031073,154.));
#1873=CARTESIAN_POINT('Origin',(386.675067489743,28.8537032031073,154.));
#1874=CARTESIAN_POINT('',(388.325067489743,28.8537032031073,154.));
#1875=CARTESIAN_POINT('Origin',(388.675130523683,27.8037032031073,237.300727535387));
#1876=CARTESIAN_POINT('',(390.325130523683,28.5537032031073,237.300727535387));
#1877=CARTESIAN_POINT('',(391.075130523683,27.8037032031073,237.300727535387));
#1878=CARTESIAN_POINT('Origin',(388.675130523683,28.5537032031073,237.300727535387));
#1879=CARTESIAN_POINT('Origin',(388.675130523683,28.8537032031073,237.300727535387));
#1880=CARTESIAN_POINT('',(390.325130523683,28.8537032031073,237.300727535387));
#1881=CARTESIAN_POINT('Origin',(387.925067489743,28.8537032031073,236.75));
#1882=CARTESIAN_POINT('',(393.725067489743,28.8537032031073,241.965361924162));
#1883=CARTESIAN_POINT('Origin',(222.075067489743,28.8537032031073,236.75));
#1884=CARTESIAN_POINT('',(216.274934894443,28.8537032031073,241.96521446126));
#1885=CARTESIAN_POINT('Origin',(393.725067489743,27.0537032031073,245.49934318535));
#1886=CARTESIAN_POINT('',(393.725067489743,27.0537032031073,146.95));
#1887=CARTESIAN_POINT('Origin',(216.274934894443,27.0537032031073,146.75));
#1888=CARTESIAN_POINT('',(216.274934894443,27.0537032031073,146.95));
#1889=CARTESIAN_POINT('Origin',(393.925067489743,27.0537032031073,146.95));
#1890=CARTESIAN_POINT('Origin',(386.675067489743,27.8037032031073,174.));
#1891=CARTESIAN_POINT('',(388.325067489743,28.5537032031073,174.));
#1892=CARTESIAN_POINT('',(389.075067489743,27.8037032031073,174.));
#1893=CARTESIAN_POINT('Origin',(386.675067489743,28.5537032031073,174.));
#1894=CARTESIAN_POINT('Origin',(386.675067489743,28.8537032031073,174.));
#1895=CARTESIAN_POINT('',(388.325067489743,28.8537032031073,174.));
#1896=CARTESIAN_POINT('Origin',(223.324934894443,27.8037032031073,174.));
#1897=CARTESIAN_POINT('',(224.974934894443,28.5537032031073,174.));
#1898=CARTESIAN_POINT('',(225.724934894443,27.8037032031073,174.));
#1899=CARTESIAN_POINT('Origin',(223.324934894443,28.5537032031073,174.));
#1900=CARTESIAN_POINT('Origin',(223.324934894443,28.8537032031073,174.));
#1901=CARTESIAN_POINT('',(224.974934894443,28.8537032031073,174.));
#1902=CARTESIAN_POINT('Origin',(234.35,35.3,244.55));
#1903=CARTESIAN_POINT('',(234.35,35.3,244.05));
#1904=CARTESIAN_POINT('Origin',(247.65,35.3,242.55));
#1905=CARTESIAN_POINT('',(247.65,35.3,243.05));
#1906=CARTESIAN_POINT('Origin',(241.,35.3,243.55));
#1907=CARTESIAN_POINT('Origin',(259.,36.5,243.55));
#1908=CARTESIAN_POINT('',(252.45,36.5,244.05));
#1909=CARTESIAN_POINT('',(265.55,36.5,243.05));
#1910=CARTESIAN_POINT('Origin',(252.45,35.5,244.55));
#1911=CARTESIAN_POINT('Origin',(265.55,35.5,242.55));
#1912=CARTESIAN_POINT('Origin',(269.8,35.3190402264807,244.55));
#1913=CARTESIAN_POINT('',(269.8,35.3190402264807,244.05));
#1914=CARTESIAN_POINT('Origin',(285.7,35.3190402264807,242.55));
#1915=CARTESIAN_POINT('',(285.7,35.3190402264807,243.05));
#1916=CARTESIAN_POINT('Origin',(277.75,35.3190402264807,243.55));
#1917=UNCERTAINTY_MEASURE_WITH_UNIT(LENGTH_MEASURE(0.01),#1921,
'DISTANCE_ACCURACY_VALUE',
'Maximum model space distance between geometric entities at asserted c
onnectivities');
#1918=UNCERTAINTY_MEASURE_WITH_UNIT(LENGTH_MEASURE(0.01),#1921,
'DISTANCE_ACCURACY_VALUE',
'Maximum model space distance between geometric entities at asserted c
onnectivities');
#1919=(
GEOMETRIC_REPRESENTATION_CONTEXT(3)
GLOBAL_UNCERTAINTY_ASSIGNED_CONTEXT((#1917))
GLOBAL_UNIT_ASSIGNED_CONTEXT((#1921,#1923,#1924))
REPRESENTATION_CONTEXT('','3D')
);
#1920=(
GEOMETRIC_REPRESENTATION_CONTEXT(3)
GLOBAL_UNCERTAINTY_ASSIGNED_CONTEXT((#1918))
GLOBAL_UNIT_ASSIGNED_CONTEXT((#1921,#1923,#1924))
REPRESENTATION_CONTEXT('','3D')
);
#1921=(
LENGTH_UNIT()
NAMED_UNIT(*)
SI_UNIT(.MILLI.,.METRE.)
);
#1922=(
LENGTH_UNIT()
NAMED_UNIT(*)
SI_UNIT($,.METRE.)
);
#1923=(
NAMED_UNIT(*)
PLANE_ANGLE_UNIT()
SI_UNIT($,.RADIAN.)
);
#1924=(
NAMED_UNIT(*)
SI_UNIT($,.STERADIAN.)
SOLID_ANGLE_UNIT()
);
#1925=SHAPE_DEFINITION_REPRESENTATION(#1926,#1927);
#1926=PRODUCT_DEFINITION_SHAPE('',$,#1929);
#1927=SHAPE_REPRESENTATION('',(#1151),#1919);
#1928=PRODUCT_DEFINITION_CONTEXT('part definition',#1933,'design');
#1929=PRODUCT_DEFINITION('Bottom Cover (pi4)','Bottom Cover (pi4)',#1930,
#1928);
#1930=PRODUCT_DEFINITION_FORMATION('',$,#1935);
#1931=PRODUCT_RELATED_PRODUCT_CATEGORY('Bottom Cover (pi4)',
'Bottom Cover (pi4)',(#1935));
#1932=APPLICATION_PROTOCOL_DEFINITION('international standard',
'automotive_design',2009,#1933);
#1933=APPLICATION_CONTEXT(
'Core Data for Automotive Mechanical Design Process');
#1934=PRODUCT_CONTEXT('part definition',#1933,'mechanical');
#1935=PRODUCT('Bottom Cover (pi4)','Bottom Cover (pi4)',$,(#1934));
#1936=PRESENTATION_STYLE_ASSIGNMENT((#1937));
#1937=SURFACE_STYLE_USAGE(.BOTH.,#1938);
#1938=SURFACE_SIDE_STYLE('',(#1939));
#1939=SURFACE_STYLE_FILL_AREA(#1940);
#1940=FILL_AREA_STYLE('ABS (White)',(#1941));
#1941=FILL_AREA_STYLE_COLOUR('ABS (White)',#1942);
#1942=COLOUR_RGB('ABS (White)',0.964705882352941,0.964705882352941,0.952941176470588);
ENDSEC;
END-ISO-10303-21;
